<mxfile host="Electron" agent="Mozilla/5.0 (Windows NT 10.0; Win64; x64) AppleWebKit/537.36 (KHTML, like Gecko) draw.io/26.0.9 Chrome/128.0.6613.186 Electron/32.2.5 Safari/537.36" version="26.0.9" pages="4">
  <diagram name="Диаграмма сценариев использования" id="c4acf3e9-155e-7222-9cf6-157b1a14988f">
    <mxGraphModel dx="463" dy="786" grid="1" gridSize="10" guides="1" tooltips="1" connect="1" arrows="1" fold="1" page="1" pageScale="1" pageWidth="850" pageHeight="1100" background="none" math="0" shadow="0">
      <root>
        <mxCell id="0" />
        <mxCell id="1" parent="0" />
        <mxCell id="5Q_zWPFth-06SJfOgQvL-1" value="Система бронирования" style="shape=umlFrame;whiteSpace=wrap;html=1;rounded=0;shadow=0;comic=0;labelBackgroundColor=none;strokeWidth=1;fontFamily=Verdana;fontSize=10;align=center;width=90;height=40;" vertex="1" parent="1">
          <mxGeometry x="1080" y="380" width="590" height="700" as="geometry" />
        </mxCell>
        <mxCell id="5Q_zWPFth-06SJfOgQvL-15" style="edgeStyle=none;shape=connector;rounded=0;orthogonalLoop=1;jettySize=auto;html=1;strokeColor=default;align=center;verticalAlign=middle;fontFamily=Helvetica;fontSize=11;fontColor=default;labelBackgroundColor=default;startFill=0;endArrow=none;entryX=0;entryY=0.5;entryDx=0;entryDy=0;" edge="1" parent="1" target="5Q_zWPFth-06SJfOgQvL-12">
          <mxGeometry relative="1" as="geometry">
            <mxPoint x="1000" y="580" as="sourcePoint" />
          </mxGeometry>
        </mxCell>
        <mxCell id="5Q_zWPFth-06SJfOgQvL-16" style="edgeStyle=none;shape=connector;rounded=0;orthogonalLoop=1;jettySize=auto;html=1;entryX=0;entryY=0.5;entryDx=0;entryDy=0;strokeColor=default;align=center;verticalAlign=middle;fontFamily=Helvetica;fontSize=11;fontColor=default;labelBackgroundColor=default;startFill=0;endArrow=none;" edge="1" parent="1" source="5Q_zWPFth-06SJfOgQvL-2" target="5Q_zWPFth-06SJfOgQvL-11">
          <mxGeometry relative="1" as="geometry" />
        </mxCell>
        <mxCell id="5Q_zWPFth-06SJfOgQvL-30" style="edgeStyle=none;shape=connector;rounded=0;orthogonalLoop=1;jettySize=auto;html=1;exitX=1;exitY=0.3333333333333333;exitDx=0;exitDy=0;exitPerimeter=0;entryX=0;entryY=0.5;entryDx=0;entryDy=0;strokeColor=default;align=center;verticalAlign=middle;fontFamily=Helvetica;fontSize=12;fontColor=default;labelBackgroundColor=default;startFill=0;endArrow=none;" edge="1" parent="1" source="5Q_zWPFth-06SJfOgQvL-2" target="5Q_zWPFth-06SJfOgQvL-20">
          <mxGeometry relative="1" as="geometry" />
        </mxCell>
        <mxCell id="5Q_zWPFth-06SJfOgQvL-2" value="Клиент" style="shape=umlActor;verticalLabelPosition=bottom;verticalAlign=top;html=1;outlineConnect=0;" vertex="1" parent="1">
          <mxGeometry x="970" y="550" width="30" height="60" as="geometry" />
        </mxCell>
        <mxCell id="R6sITiRqcXBimKomNWk--33" style="edgeStyle=none;shape=connector;rounded=0;orthogonalLoop=1;jettySize=auto;html=1;exitX=0;exitY=0.3333333333333333;exitDx=0;exitDy=0;exitPerimeter=0;entryX=1;entryY=0;entryDx=0;entryDy=0;strokeColor=default;align=center;verticalAlign=middle;fontFamily=Helvetica;fontSize=12;fontColor=default;labelBackgroundColor=default;startFill=0;endArrow=none;endFill=0;" edge="1" parent="1" source="5Q_zWPFth-06SJfOgQvL-7" target="R6sITiRqcXBimKomNWk--1">
          <mxGeometry relative="1" as="geometry" />
        </mxCell>
        <mxCell id="5Q_zWPFth-06SJfOgQvL-7" value="Администратор&lt;div&gt;системы&lt;/div&gt;" style="shape=umlActor;verticalLabelPosition=bottom;verticalAlign=top;html=1;outlineConnect=0;" vertex="1" parent="1">
          <mxGeometry x="1720" y="670" width="30" height="60" as="geometry" />
        </mxCell>
        <mxCell id="5Q_zWPFth-06SJfOgQvL-14" style="rounded=0;orthogonalLoop=1;jettySize=auto;html=1;entryX=0;entryY=0.5;entryDx=0;entryDy=0;endArrow=none;startFill=0;" edge="1" parent="1" source="5Q_zWPFth-06SJfOgQvL-10" target="5Q_zWPFth-06SJfOgQvL-12">
          <mxGeometry relative="1" as="geometry" />
        </mxCell>
        <mxCell id="5Q_zWPFth-06SJfOgQvL-10" value="Работник&lt;div&gt;магазина&lt;/div&gt;" style="shape=umlActor;verticalLabelPosition=bottom;verticalAlign=top;html=1;outlineConnect=0;" vertex="1" parent="1">
          <mxGeometry x="970" y="725" width="30" height="60" as="geometry" />
        </mxCell>
        <mxCell id="5Q_zWPFth-06SJfOgQvL-11" value="Зарегистрироваться" style="ellipse;whiteSpace=wrap;html=1;" vertex="1" parent="1">
          <mxGeometry x="1120" y="430" width="160" height="40" as="geometry" />
        </mxCell>
        <mxCell id="R6sITiRqcXBimKomNWk--11" style="edgeStyle=none;shape=connector;rounded=0;orthogonalLoop=1;jettySize=auto;html=1;exitX=1;exitY=0.5;exitDx=0;exitDy=0;strokeColor=default;align=center;verticalAlign=middle;fontFamily=Helvetica;fontSize=12;fontColor=default;labelBackgroundColor=default;startFill=0;endArrow=none;entryX=0;entryY=0.3333333333333333;entryDx=0;entryDy=0;entryPerimeter=0;" edge="1" parent="1" source="5Q_zWPFth-06SJfOgQvL-12" target="5Q_zWPFth-06SJfOgQvL-7">
          <mxGeometry relative="1" as="geometry" />
        </mxCell>
        <mxCell id="5Q_zWPFth-06SJfOgQvL-12" value="Авторизоваться" style="ellipse;whiteSpace=wrap;html=1;" vertex="1" parent="1">
          <mxGeometry x="1120" y="720" width="160" height="40" as="geometry" />
        </mxCell>
        <mxCell id="5Q_zWPFth-06SJfOgQvL-18" value="Создать нового пользователя" style="ellipse;whiteSpace=wrap;html=1;" vertex="1" parent="1">
          <mxGeometry x="1560" y="400" width="100" height="40" as="geometry" />
        </mxCell>
        <mxCell id="5Q_zWPFth-06SJfOgQvL-19" value="Изменить роль пользователя" style="ellipse;whiteSpace=wrap;html=1;" vertex="1" parent="1">
          <mxGeometry x="1470" y="440" width="100" height="40" as="geometry" />
        </mxCell>
        <mxCell id="5Q_zWPFth-06SJfOgQvL-20" value="Взять велосипед в прокат" style="ellipse;whiteSpace=wrap;html=1;" vertex="1" parent="1">
          <mxGeometry x="1121" y="490" width="160" height="40" as="geometry" />
        </mxCell>
        <mxCell id="5Q_zWPFth-06SJfOgQvL-39" style="edgeStyle=none;shape=connector;rounded=0;orthogonalLoop=1;jettySize=auto;html=1;exitX=0;exitY=0.5;exitDx=0;exitDy=0;strokeColor=default;align=center;verticalAlign=middle;fontFamily=Helvetica;fontSize=12;fontColor=default;labelBackgroundColor=default;startFill=0;endArrow=none;" edge="1" parent="1" source="5Q_zWPFth-06SJfOgQvL-21" target="5Q_zWPFth-06SJfOgQvL-10">
          <mxGeometry relative="1" as="geometry" />
        </mxCell>
        <mxCell id="R6sITiRqcXBimKomNWk--27" style="edgeStyle=none;shape=connector;rounded=0;orthogonalLoop=1;jettySize=auto;html=1;exitX=1;exitY=0.5;exitDx=0;exitDy=0;entryX=0;entryY=0.5;entryDx=0;entryDy=0;strokeColor=default;align=center;verticalAlign=middle;fontFamily=Helvetica;fontSize=12;fontColor=default;labelBackgroundColor=default;startFill=0;endArrow=block;endFill=0;" edge="1" parent="1" source="5Q_zWPFth-06SJfOgQvL-21" target="5Q_zWPFth-06SJfOgQvL-24">
          <mxGeometry relative="1" as="geometry" />
        </mxCell>
        <mxCell id="R6sITiRqcXBimKomNWk--28" style="edgeStyle=none;shape=connector;rounded=0;orthogonalLoop=1;jettySize=auto;html=1;exitX=1;exitY=1;exitDx=0;exitDy=0;entryX=0;entryY=0.5;entryDx=0;entryDy=0;strokeColor=default;align=center;verticalAlign=middle;fontFamily=Helvetica;fontSize=12;fontColor=default;labelBackgroundColor=default;startFill=0;endArrow=block;endFill=0;" edge="1" parent="1" source="5Q_zWPFth-06SJfOgQvL-21" target="R6sITiRqcXBimKomNWk--5">
          <mxGeometry relative="1" as="geometry" />
        </mxCell>
        <mxCell id="5Q_zWPFth-06SJfOgQvL-21" value="Обслужить клиента" style="ellipse;whiteSpace=wrap;html=1;" vertex="1" parent="1">
          <mxGeometry x="1121" y="960" width="160" height="40" as="geometry" />
        </mxCell>
        <mxCell id="5Q_zWPFth-06SJfOgQvL-22" value="Удалить пользователя" style="ellipse;whiteSpace=wrap;html=1;" vertex="1" parent="1">
          <mxGeometry x="1470" y="600" width="100" height="40" as="geometry" />
        </mxCell>
        <mxCell id="5Q_zWPFth-06SJfOgQvL-24" value="Забрать велосипед" style="ellipse;whiteSpace=wrap;html=1;" vertex="1" parent="1">
          <mxGeometry x="1340" y="960" width="140" height="40" as="geometry" />
        </mxCell>
        <mxCell id="5Q_zWPFth-06SJfOgQvL-34" style="edgeStyle=none;shape=connector;rounded=0;orthogonalLoop=1;jettySize=auto;html=1;exitX=0;exitY=0.5;exitDx=0;exitDy=0;strokeColor=default;align=center;verticalAlign=middle;fontFamily=Helvetica;fontSize=12;fontColor=default;labelBackgroundColor=default;startFill=0;endArrow=none;" edge="1" parent="1" source="5Q_zWPFth-06SJfOgQvL-25">
          <mxGeometry relative="1" as="geometry">
            <mxPoint x="1000" y="580" as="targetPoint" />
          </mxGeometry>
        </mxCell>
        <mxCell id="5Q_zWPFth-06SJfOgQvL-25" value="Изменить информацию о себе" style="ellipse;whiteSpace=wrap;html=1;strokeColor=default;align=center;verticalAlign=middle;fontFamily=Helvetica;fontSize=12;fontColor=default;fillColor=default;" vertex="1" parent="1">
          <mxGeometry x="1120" y="640" width="160" height="40" as="geometry" />
        </mxCell>
        <mxCell id="R6sITiRqcXBimKomNWk--17" style="edgeStyle=none;shape=connector;rounded=0;orthogonalLoop=1;jettySize=auto;html=1;exitX=0;exitY=0.5;exitDx=0;exitDy=0;entryX=1;entryY=0.5;entryDx=0;entryDy=0;strokeColor=default;align=center;verticalAlign=middle;fontFamily=Helvetica;fontSize=12;fontColor=default;labelBackgroundColor=default;startFill=1;endArrow=none;dashed=1;startArrow=block;endFill=1;" edge="1" parent="1" source="5Q_zWPFth-06SJfOgQvL-26" target="5Q_zWPFth-06SJfOgQvL-20">
          <mxGeometry relative="1" as="geometry" />
        </mxCell>
        <mxCell id="5Q_zWPFth-06SJfOgQvL-26" value="Получить велосипед" style="ellipse;whiteSpace=wrap;html=1;" vertex="1" parent="1">
          <mxGeometry x="1370" y="485" width="100" height="50" as="geometry" />
        </mxCell>
        <mxCell id="R6sITiRqcXBimKomNWk--18" style="edgeStyle=none;shape=connector;rounded=0;orthogonalLoop=1;jettySize=auto;html=1;exitX=0;exitY=0.5;exitDx=0;exitDy=0;entryX=1;entryY=0.5;entryDx=0;entryDy=0;strokeColor=default;align=center;verticalAlign=middle;fontFamily=Helvetica;fontSize=12;fontColor=default;labelBackgroundColor=default;startFill=1;endArrow=none;dashed=1;startArrow=block;endFill=1;" edge="1" parent="1" source="5Q_zWPFth-06SJfOgQvL-27" target="5Q_zWPFth-06SJfOgQvL-20">
          <mxGeometry relative="1" as="geometry" />
        </mxCell>
        <mxCell id="5Q_zWPFth-06SJfOgQvL-27" value="Сдать велосипед" style="ellipse;whiteSpace=wrap;html=1;" vertex="1" parent="1">
          <mxGeometry x="1350" y="550" width="100" height="50" as="geometry" />
        </mxCell>
        <mxCell id="5Q_zWPFth-06SJfOgQvL-33" style="edgeStyle=none;shape=connector;rounded=0;orthogonalLoop=1;jettySize=auto;html=1;exitX=0;exitY=0.5;exitDx=0;exitDy=0;strokeColor=default;align=center;verticalAlign=middle;fontFamily=Helvetica;fontSize=12;fontColor=default;labelBackgroundColor=default;startFill=0;endArrow=none;" edge="1" parent="1" source="5Q_zWPFth-06SJfOgQvL-28">
          <mxGeometry relative="1" as="geometry">
            <mxPoint x="1000" y="579.9999999999998" as="targetPoint" />
          </mxGeometry>
        </mxCell>
        <mxCell id="5Q_zWPFth-06SJfOgQvL-28" value="Посмотреть велосипеды в наличии" style="ellipse;whiteSpace=wrap;html=1;" vertex="1" parent="1">
          <mxGeometry x="1120" y="560" width="160" height="40" as="geometry" />
        </mxCell>
        <mxCell id="5Q_zWPFth-06SJfOgQvL-38" style="edgeStyle=none;shape=connector;rounded=0;orthogonalLoop=1;jettySize=auto;html=1;exitX=0;exitY=0.5;exitDx=0;exitDy=0;strokeColor=default;align=center;verticalAlign=middle;fontFamily=Helvetica;fontSize=12;fontColor=default;labelBackgroundColor=default;startFill=0;endArrow=none;" edge="1" parent="1" source="5Q_zWPFth-06SJfOgQvL-29" target="5Q_zWPFth-06SJfOgQvL-10">
          <mxGeometry relative="1" as="geometry" />
        </mxCell>
        <mxCell id="R6sITiRqcXBimKomNWk--19" style="edgeStyle=none;shape=connector;rounded=0;orthogonalLoop=1;jettySize=auto;html=1;exitX=1;exitY=0.5;exitDx=0;exitDy=0;entryX=0;entryY=0.5;entryDx=0;entryDy=0;strokeColor=default;align=center;verticalAlign=middle;fontFamily=Helvetica;fontSize=12;fontColor=default;labelBackgroundColor=default;startFill=0;endArrow=block;endFill=0;" edge="1" parent="1" source="5Q_zWPFth-06SJfOgQvL-29" target="R6sITiRqcXBimKomNWk--6">
          <mxGeometry relative="1" as="geometry" />
        </mxCell>
        <mxCell id="R6sITiRqcXBimKomNWk--20" style="edgeStyle=none;shape=connector;rounded=0;orthogonalLoop=1;jettySize=auto;html=1;exitX=1;exitY=0.5;exitDx=0;exitDy=0;entryX=0;entryY=0.5;entryDx=0;entryDy=0;strokeColor=default;align=center;verticalAlign=middle;fontFamily=Helvetica;fontSize=12;fontColor=default;labelBackgroundColor=default;startFill=0;endArrow=block;endFill=0;" edge="1" parent="1" source="5Q_zWPFth-06SJfOgQvL-29" target="R6sITiRqcXBimKomNWk--7">
          <mxGeometry relative="1" as="geometry" />
        </mxCell>
        <mxCell id="5Q_zWPFth-06SJfOgQvL-29" value="Вести учет велосипедов" style="ellipse;whiteSpace=wrap;html=1;" vertex="1" parent="1">
          <mxGeometry x="1121" y="800" width="160" height="40" as="geometry" />
        </mxCell>
        <mxCell id="5Q_zWPFth-06SJfOgQvL-35" style="edgeStyle=none;shape=connector;rounded=0;orthogonalLoop=1;jettySize=auto;html=1;exitX=0;exitY=0.5;exitDx=0;exitDy=0;entryX=1;entryY=0.3333333333333333;entryDx=0;entryDy=0;entryPerimeter=0;strokeColor=default;align=center;verticalAlign=middle;fontFamily=Helvetica;fontSize=12;fontColor=default;labelBackgroundColor=default;startFill=0;endArrow=none;" edge="1" parent="1" source="5Q_zWPFth-06SJfOgQvL-28" target="5Q_zWPFth-06SJfOgQvL-10">
          <mxGeometry relative="1" as="geometry" />
        </mxCell>
        <mxCell id="5Q_zWPFth-06SJfOgQvL-36" style="edgeStyle=none;shape=connector;rounded=0;orthogonalLoop=1;jettySize=auto;html=1;exitX=0;exitY=0.5;exitDx=0;exitDy=0;entryX=1;entryY=0.3333333333333333;entryDx=0;entryDy=0;entryPerimeter=0;strokeColor=default;align=center;verticalAlign=middle;fontFamily=Helvetica;fontSize=12;fontColor=default;labelBackgroundColor=default;startFill=0;endArrow=none;" edge="1" parent="1" source="5Q_zWPFth-06SJfOgQvL-25" target="5Q_zWPFth-06SJfOgQvL-10">
          <mxGeometry relative="1" as="geometry" />
        </mxCell>
        <mxCell id="R6sITiRqcXBimKomNWk--35" style="edgeStyle=none;shape=connector;rounded=0;orthogonalLoop=1;jettySize=auto;html=1;exitX=0.5;exitY=1;exitDx=0;exitDy=0;entryX=0.5;entryY=0;entryDx=0;entryDy=0;strokeColor=default;align=center;verticalAlign=middle;fontFamily=Helvetica;fontSize=12;fontColor=default;labelBackgroundColor=default;startFill=0;endArrow=block;endFill=0;" edge="1" parent="1" source="R6sITiRqcXBimKomNWk--1" target="R6sITiRqcXBimKomNWk--3">
          <mxGeometry relative="1" as="geometry" />
        </mxCell>
        <mxCell id="R6sITiRqcXBimKomNWk--1" value="Управлять магазинами" style="ellipse;whiteSpace=wrap;html=1;" vertex="1" parent="1">
          <mxGeometry x="1520" y="770" width="140" height="40" as="geometry" />
        </mxCell>
        <mxCell id="R6sITiRqcXBimKomNWk--2" value="Создание магазина" style="ellipse;whiteSpace=wrap;html=1;" vertex="1" parent="1">
          <mxGeometry x="1560" y="910" width="100" height="40" as="geometry" />
        </mxCell>
        <mxCell id="R6sITiRqcXBimKomNWk--3" value="Удаление магазина" style="ellipse;whiteSpace=wrap;html=1;" vertex="1" parent="1">
          <mxGeometry x="1490" y="860" width="100" height="40" as="geometry" />
        </mxCell>
        <mxCell id="R6sITiRqcXBimKomNWk--5" value="Выдать велосипед" style="ellipse;whiteSpace=wrap;html=1;" vertex="1" parent="1">
          <mxGeometry x="1340" y="1010" width="140" height="40" as="geometry" />
        </mxCell>
        <mxCell id="R6sITiRqcXBimKomNWk--6" value="Добавить велосипед" style="ellipse;whiteSpace=wrap;html=1;" vertex="1" parent="1">
          <mxGeometry x="1340" y="745" width="140" height="40" as="geometry" />
        </mxCell>
        <mxCell id="R6sITiRqcXBimKomNWk--7" value="Списать велосипед" style="ellipse;whiteSpace=wrap;html=1;" vertex="1" parent="1">
          <mxGeometry x="1340" y="800" width="140" height="40" as="geometry" />
        </mxCell>
        <mxCell id="R6sITiRqcXBimKomNWk--8" value="Добавить модель велосипеда" style="ellipse;whiteSpace=wrap;html=1;" vertex="1" parent="1">
          <mxGeometry x="1340" y="850" width="140" height="40" as="geometry" />
        </mxCell>
        <mxCell id="R6sITiRqcXBimKomNWk--13" style="edgeStyle=none;shape=connector;rounded=0;orthogonalLoop=1;jettySize=auto;html=1;exitX=1;exitY=0.5;exitDx=0;exitDy=0;strokeColor=default;align=center;verticalAlign=middle;fontFamily=Helvetica;fontSize=12;fontColor=default;labelBackgroundColor=default;startFill=0;endArrow=none;entryX=0;entryY=0.3333333333333333;entryDx=0;entryDy=0;entryPerimeter=0;" edge="1" parent="1" source="R6sITiRqcXBimKomNWk--10" target="5Q_zWPFth-06SJfOgQvL-7">
          <mxGeometry relative="1" as="geometry">
            <mxPoint x="1730" y="729.9999999999998" as="targetPoint" />
          </mxGeometry>
        </mxCell>
        <mxCell id="R6sITiRqcXBimKomNWk--30" style="edgeStyle=none;shape=connector;rounded=0;orthogonalLoop=1;jettySize=auto;html=1;exitX=0.5;exitY=0;exitDx=0;exitDy=0;entryX=0.5;entryY=1;entryDx=0;entryDy=0;strokeColor=default;align=center;verticalAlign=middle;fontFamily=Helvetica;fontSize=12;fontColor=default;labelBackgroundColor=default;startFill=0;endArrow=block;endFill=0;" edge="1" parent="1" source="R6sITiRqcXBimKomNWk--10" target="5Q_zWPFth-06SJfOgQvL-18">
          <mxGeometry relative="1" as="geometry" />
        </mxCell>
        <mxCell id="R6sITiRqcXBimKomNWk--31" style="edgeStyle=none;shape=connector;rounded=0;orthogonalLoop=1;jettySize=auto;html=1;exitX=0.5;exitY=0;exitDx=0;exitDy=0;entryX=0.5;entryY=1;entryDx=0;entryDy=0;strokeColor=default;align=center;verticalAlign=middle;fontFamily=Helvetica;fontSize=12;fontColor=default;labelBackgroundColor=default;startFill=0;endArrow=block;endFill=0;" edge="1" parent="1" source="R6sITiRqcXBimKomNWk--10" target="5Q_zWPFth-06SJfOgQvL-19">
          <mxGeometry relative="1" as="geometry" />
        </mxCell>
        <mxCell id="R6sITiRqcXBimKomNWk--32" style="edgeStyle=none;shape=connector;rounded=0;orthogonalLoop=1;jettySize=auto;html=1;exitX=0.5;exitY=1;exitDx=0;exitDy=0;entryX=0.5;entryY=0;entryDx=0;entryDy=0;strokeColor=default;align=center;verticalAlign=middle;fontFamily=Helvetica;fontSize=12;fontColor=default;labelBackgroundColor=default;startFill=0;endArrow=block;endFill=0;" edge="1" parent="1" source="R6sITiRqcXBimKomNWk--10" target="5Q_zWPFth-06SJfOgQvL-22">
          <mxGeometry relative="1" as="geometry" />
        </mxCell>
        <mxCell id="R6sITiRqcXBimKomNWk--10" value="Управлять пользователями" style="ellipse;whiteSpace=wrap;html=1;" vertex="1" parent="1">
          <mxGeometry x="1500" y="520" width="140" height="40" as="geometry" />
        </mxCell>
        <mxCell id="R6sITiRqcXBimKomNWk--12" style="edgeStyle=none;shape=connector;rounded=0;orthogonalLoop=1;jettySize=auto;html=1;exitX=1;exitY=0.5;exitDx=0;exitDy=0;entryX=0;entryY=0.3333333333333333;entryDx=0;entryDy=0;entryPerimeter=0;strokeColor=default;align=center;verticalAlign=middle;fontFamily=Helvetica;fontSize=12;fontColor=default;labelBackgroundColor=default;startFill=0;endArrow=none;" edge="1" parent="1" source="5Q_zWPFth-06SJfOgQvL-25" target="5Q_zWPFth-06SJfOgQvL-7">
          <mxGeometry relative="1" as="geometry" />
        </mxCell>
        <mxCell id="R6sITiRqcXBimKomNWk--16" style="edgeStyle=none;shape=connector;rounded=0;orthogonalLoop=1;jettySize=auto;html=1;exitX=0;exitY=0.5;exitDx=0;exitDy=0;entryX=1;entryY=0.5;entryDx=0;entryDy=0;strokeColor=default;align=center;verticalAlign=middle;fontFamily=Helvetica;fontSize=12;fontColor=default;labelBackgroundColor=default;startFill=1;endArrow=none;dashed=1;endFill=1;startArrow=block;" edge="1" parent="1" source="R6sITiRqcXBimKomNWk--15" target="5Q_zWPFth-06SJfOgQvL-20">
          <mxGeometry relative="1" as="geometry" />
        </mxCell>
        <mxCell id="R6sITiRqcXBimKomNWk--15" value="Забронировать велосипед" style="ellipse;whiteSpace=wrap;html=1;" vertex="1" parent="1">
          <mxGeometry x="1350" y="420" width="100" height="50" as="geometry" />
        </mxCell>
        <mxCell id="R6sITiRqcXBimKomNWk--22" style="edgeStyle=none;shape=connector;rounded=0;orthogonalLoop=1;jettySize=auto;html=1;exitX=0;exitY=0.5;exitDx=0;exitDy=0;strokeColor=default;align=center;verticalAlign=middle;fontFamily=Helvetica;fontSize=12;fontColor=default;labelBackgroundColor=default;startFill=0;endArrow=none;" edge="1" parent="1" source="R6sITiRqcXBimKomNWk--21">
          <mxGeometry relative="1" as="geometry">
            <mxPoint x="1000" y="770.0000000000002" as="targetPoint" />
          </mxGeometry>
        </mxCell>
        <mxCell id="R6sITiRqcXBimKomNWk--23" style="edgeStyle=none;shape=connector;rounded=0;orthogonalLoop=1;jettySize=auto;html=1;exitX=1;exitY=0.5;exitDx=0;exitDy=0;entryX=0;entryY=0.5;entryDx=0;entryDy=0;strokeColor=default;align=center;verticalAlign=middle;fontFamily=Helvetica;fontSize=12;fontColor=default;labelBackgroundColor=default;startFill=0;endArrow=block;endFill=0;" edge="1" parent="1" source="R6sITiRqcXBimKomNWk--21" target="R6sITiRqcXBimKomNWk--8">
          <mxGeometry relative="1" as="geometry" />
        </mxCell>
        <mxCell id="R6sITiRqcXBimKomNWk--25" style="edgeStyle=none;shape=connector;rounded=0;orthogonalLoop=1;jettySize=auto;html=1;exitX=1;exitY=0.5;exitDx=0;exitDy=0;entryX=0;entryY=0.5;entryDx=0;entryDy=0;strokeColor=default;align=center;verticalAlign=middle;fontFamily=Helvetica;fontSize=12;fontColor=default;labelBackgroundColor=default;startFill=0;endArrow=block;endFill=0;" edge="1" parent="1" source="R6sITiRqcXBimKomNWk--21" target="R6sITiRqcXBimKomNWk--24">
          <mxGeometry relative="1" as="geometry" />
        </mxCell>
        <mxCell id="R6sITiRqcXBimKomNWk--21" value="Актуализировать каталог" style="ellipse;whiteSpace=wrap;html=1;" vertex="1" parent="1">
          <mxGeometry x="1121" y="860" width="160" height="40" as="geometry" />
        </mxCell>
        <mxCell id="R6sITiRqcXBimKomNWk--24" value="Удалить модель велосипеда" style="ellipse;whiteSpace=wrap;html=1;" vertex="1" parent="1">
          <mxGeometry x="1340" y="900" width="140" height="40" as="geometry" />
        </mxCell>
        <mxCell id="R6sITiRqcXBimKomNWk--34" style="edgeStyle=none;shape=connector;rounded=0;orthogonalLoop=1;jettySize=auto;html=1;exitX=0.5;exitY=1;exitDx=0;exitDy=0;entryX=0.5;entryY=0;entryDx=0;entryDy=0;strokeColor=default;align=center;verticalAlign=middle;fontFamily=Helvetica;fontSize=12;fontColor=default;labelBackgroundColor=default;startFill=0;endArrow=block;endFill=0;" edge="1" parent="1" source="R6sITiRqcXBimKomNWk--1" target="R6sITiRqcXBimKomNWk--2">
          <mxGeometry relative="1" as="geometry" />
        </mxCell>
      </root>
    </mxGraphModel>
  </diagram>
  <diagram id="XkStOb50PGYoHI9sRo4j" name="Инфологическая модель">
    <mxGraphModel dx="2927" dy="2427" grid="1" gridSize="10" guides="1" tooltips="1" connect="1" arrows="1" fold="1" page="1" pageScale="1" pageWidth="827" pageHeight="1169" math="0" shadow="0">
      <root>
        <mxCell id="0" />
        <mxCell id="1" parent="0" />
        <mxCell id="BaX5ZBMZweJ76i1v1zu9-5" style="edgeStyle=none;shape=connector;rounded=0;orthogonalLoop=1;jettySize=auto;html=1;exitX=1;exitY=0.5;exitDx=0;exitDy=0;entryX=0;entryY=0.5;entryDx=0;entryDy=0;strokeColor=default;align=center;verticalAlign=middle;fontFamily=Helvetica;fontSize=12;fontColor=default;labelBackgroundColor=default;startFill=0;endArrow=none;" edge="1" parent="1" source="4k0wfkkiHkNcyjWY7Jx8-1" target="4k0wfkkiHkNcyjWY7Jx8-3">
          <mxGeometry relative="1" as="geometry" />
        </mxCell>
        <mxCell id="BaX5ZBMZweJ76i1v1zu9-21" style="edgeStyle=none;shape=connector;rounded=0;orthogonalLoop=1;jettySize=auto;html=1;exitX=0;exitY=0.25;exitDx=0;exitDy=0;entryX=1;entryY=1;entryDx=0;entryDy=0;strokeColor=default;align=center;verticalAlign=middle;fontFamily=Helvetica;fontSize=12;fontColor=default;labelBackgroundColor=default;startFill=0;endArrow=none;" edge="1" parent="1" source="4k0wfkkiHkNcyjWY7Jx8-1" target="BaX5ZBMZweJ76i1v1zu9-20">
          <mxGeometry relative="1" as="geometry" />
        </mxCell>
        <mxCell id="BaX5ZBMZweJ76i1v1zu9-23" style="edgeStyle=none;shape=connector;rounded=0;orthogonalLoop=1;jettySize=auto;html=1;exitX=0.25;exitY=1;exitDx=0;exitDy=0;entryX=0.5;entryY=1;entryDx=0;entryDy=0;strokeColor=default;align=center;verticalAlign=middle;fontFamily=Helvetica;fontSize=12;fontColor=default;labelBackgroundColor=default;startFill=0;endArrow=none;" edge="1" parent="1" source="4k0wfkkiHkNcyjWY7Jx8-1" target="BaX5ZBMZweJ76i1v1zu9-22">
          <mxGeometry relative="1" as="geometry" />
        </mxCell>
        <mxCell id="lmWJ4_sTHjdbhTflXQGY-32" style="edgeStyle=none;shape=connector;rounded=0;orthogonalLoop=1;jettySize=auto;html=1;exitX=0.5;exitY=0;exitDx=0;exitDy=0;entryX=0.5;entryY=1;entryDx=0;entryDy=0;strokeColor=default;align=center;verticalAlign=middle;fontFamily=Helvetica;fontSize=12;fontColor=default;labelBackgroundColor=default;startFill=0;endArrow=none;endFill=0;" edge="1" parent="1" source="4k0wfkkiHkNcyjWY7Jx8-1" target="lmWJ4_sTHjdbhTflXQGY-31">
          <mxGeometry relative="1" as="geometry" />
        </mxCell>
        <mxCell id="4k0wfkkiHkNcyjWY7Jx8-1" value="Клиент" style="rounded=0;whiteSpace=wrap;html=1;strokeColor=#6c8ebf;align=center;verticalAlign=middle;fontFamily=Helvetica;fontSize=12;fillColor=#dae8fc;" vertex="1" parent="1">
          <mxGeometry x="120" y="160" width="120" height="80" as="geometry" />
        </mxCell>
        <mxCell id="BaX5ZBMZweJ76i1v1zu9-40" style="edgeStyle=none;shape=connector;rounded=0;orthogonalLoop=1;jettySize=auto;html=1;exitX=0.5;exitY=0;exitDx=0;exitDy=0;entryX=0.5;entryY=1;entryDx=0;entryDy=0;strokeColor=default;align=center;verticalAlign=middle;fontFamily=Helvetica;fontSize=12;fontColor=default;labelBackgroundColor=default;startFill=0;endArrow=none;" edge="1" parent="1" source="4k0wfkkiHkNcyjWY7Jx8-2" target="BaX5ZBMZweJ76i1v1zu9-2">
          <mxGeometry relative="1" as="geometry" />
        </mxCell>
        <mxCell id="4k0wfkkiHkNcyjWY7Jx8-2" value="ID" style="ellipse;whiteSpace=wrap;html=1;strokeColor=#82b366;align=center;verticalAlign=middle;fontFamily=Helvetica;fontSize=12;fillColor=#d5e8d4;" vertex="1" parent="1">
          <mxGeometry x="620" y="560" width="80" height="40" as="geometry" />
        </mxCell>
        <mxCell id="BaX5ZBMZweJ76i1v1zu9-6" style="edgeStyle=none;shape=connector;rounded=0;orthogonalLoop=1;jettySize=auto;html=1;exitX=1;exitY=0.5;exitDx=0;exitDy=0;entryX=0;entryY=0.5;entryDx=0;entryDy=0;strokeColor=default;align=center;verticalAlign=middle;fontFamily=Helvetica;fontSize=12;fontColor=default;labelBackgroundColor=default;startFill=0;endArrow=none;" edge="1" parent="1" source="4k0wfkkiHkNcyjWY7Jx8-3" target="BaX5ZBMZweJ76i1v1zu9-4">
          <mxGeometry relative="1" as="geometry" />
        </mxCell>
        <mxCell id="4k0wfkkiHkNcyjWY7Jx8-3" value="" style="rhombus;whiteSpace=wrap;html=1;strokeColor=#b85450;align=center;verticalAlign=middle;fontFamily=Helvetica;fontSize=12;fillColor=#f8cecc;" vertex="1" parent="1">
          <mxGeometry x="280" y="180" width="40" height="40" as="geometry" />
        </mxCell>
        <mxCell id="BaX5ZBMZweJ76i1v1zu9-8" style="edgeStyle=none;shape=connector;rounded=0;orthogonalLoop=1;jettySize=auto;html=1;exitX=0;exitY=0.5;exitDx=0;exitDy=0;entryX=1;entryY=0.5;entryDx=0;entryDy=0;strokeColor=default;align=center;verticalAlign=middle;fontFamily=Helvetica;fontSize=12;fontColor=default;labelBackgroundColor=default;startFill=0;endArrow=none;" edge="1" parent="1" source="4k0wfkkiHkNcyjWY7Jx8-4" target="BaX5ZBMZweJ76i1v1zu9-7">
          <mxGeometry relative="1" as="geometry" />
        </mxCell>
        <mxCell id="lmWJ4_sTHjdbhTflXQGY-11" style="edgeStyle=none;shape=connector;rounded=0;orthogonalLoop=1;jettySize=auto;html=1;exitX=0.5;exitY=0;exitDx=0;exitDy=0;entryX=0.5;entryY=1;entryDx=0;entryDy=0;strokeColor=default;align=center;verticalAlign=middle;fontFamily=Helvetica;fontSize=12;fontColor=default;labelBackgroundColor=default;startFill=0;endArrow=none;endFill=0;" edge="1" parent="1" source="4k0wfkkiHkNcyjWY7Jx8-4" target="lmWJ4_sTHjdbhTflXQGY-10">
          <mxGeometry relative="1" as="geometry" />
        </mxCell>
        <mxCell id="4k0wfkkiHkNcyjWY7Jx8-4" value="Магазин" style="rounded=0;whiteSpace=wrap;html=1;strokeColor=#6c8ebf;align=center;verticalAlign=middle;fontFamily=Helvetica;fontSize=12;fillColor=#dae8fc;" vertex="1" parent="1">
          <mxGeometry x="600" y="160" width="120" height="80" as="geometry" />
        </mxCell>
        <mxCell id="BaX5ZBMZweJ76i1v1zu9-15" style="edgeStyle=none;shape=connector;rounded=0;orthogonalLoop=1;jettySize=auto;html=1;exitX=0.75;exitY=0;exitDx=0;exitDy=0;entryX=0.5;entryY=1;entryDx=0;entryDy=0;strokeColor=default;align=center;verticalAlign=middle;fontFamily=Helvetica;fontSize=12;fontColor=default;labelBackgroundColor=default;startFill=0;endArrow=none;" edge="1" parent="1" source="BaX5ZBMZweJ76i1v1zu9-2" target="BaX5ZBMZweJ76i1v1zu9-14">
          <mxGeometry relative="1" as="geometry" />
        </mxCell>
        <mxCell id="BaX5ZBMZweJ76i1v1zu9-18" style="edgeStyle=none;shape=connector;rounded=0;orthogonalLoop=1;jettySize=auto;html=1;exitX=0;exitY=0.5;exitDx=0;exitDy=0;entryX=1;entryY=0.5;entryDx=0;entryDy=0;strokeColor=default;align=center;verticalAlign=middle;fontFamily=Helvetica;fontSize=12;fontColor=default;labelBackgroundColor=default;startFill=0;endArrow=none;" edge="1" parent="1" source="BaX5ZBMZweJ76i1v1zu9-2" target="BaX5ZBMZweJ76i1v1zu9-17">
          <mxGeometry relative="1" as="geometry" />
        </mxCell>
        <mxCell id="TpAXoVu1QkIn0_8xhT-U-9" style="edgeStyle=none;shape=connector;rounded=0;orthogonalLoop=1;jettySize=auto;html=1;exitX=0.25;exitY=0;exitDx=0;exitDy=0;entryX=0.5;entryY=1;entryDx=0;entryDy=0;strokeColor=default;align=center;verticalAlign=middle;fontFamily=Helvetica;fontSize=12;fontColor=default;labelBackgroundColor=default;startFill=0;endArrow=none;endFill=0;" edge="1" parent="1" source="BaX5ZBMZweJ76i1v1zu9-2" target="TpAXoVu1QkIn0_8xhT-U-8">
          <mxGeometry relative="1" as="geometry" />
        </mxCell>
        <mxCell id="BaX5ZBMZweJ76i1v1zu9-2" value="Велосипед" style="rounded=0;whiteSpace=wrap;html=1;strokeColor=#6c8ebf;align=center;verticalAlign=middle;fontFamily=Helvetica;fontSize=12;fillColor=#dae8fc;" vertex="1" parent="1">
          <mxGeometry x="600" y="440" width="120" height="80" as="geometry" />
        </mxCell>
        <mxCell id="BaX5ZBMZweJ76i1v1zu9-3" value="Модель велосипеда" style="rounded=0;whiteSpace=wrap;html=1;strokeColor=#6c8ebf;align=center;verticalAlign=middle;fontFamily=Helvetica;fontSize=12;fillColor=#dae8fc;" vertex="1" parent="1">
          <mxGeometry x="360" y="440" width="120" height="80" as="geometry" />
        </mxCell>
        <mxCell id="TpAXoVu1QkIn0_8xhT-U-6" style="edgeStyle=none;shape=connector;rounded=0;orthogonalLoop=1;jettySize=auto;html=1;exitX=0.75;exitY=1;exitDx=0;exitDy=0;entryX=0.5;entryY=0;entryDx=0;entryDy=0;strokeColor=default;align=center;verticalAlign=middle;fontFamily=Helvetica;fontSize=12;fontColor=default;labelBackgroundColor=default;startFill=0;endArrow=none;endFill=0;" edge="1" parent="1" source="BaX5ZBMZweJ76i1v1zu9-4" target="TpAXoVu1QkIn0_8xhT-U-5">
          <mxGeometry relative="1" as="geometry" />
        </mxCell>
        <mxCell id="BaX5ZBMZweJ76i1v1zu9-4" value="Бронирование" style="rounded=0;whiteSpace=wrap;html=1;strokeColor=#6c8ebf;align=center;verticalAlign=middle;fontFamily=Helvetica;fontSize=12;fillColor=#dae8fc;" vertex="1" parent="1">
          <mxGeometry x="360" y="160" width="120" height="80" as="geometry" />
        </mxCell>
        <mxCell id="BaX5ZBMZweJ76i1v1zu9-9" style="edgeStyle=none;shape=connector;rounded=0;orthogonalLoop=1;jettySize=auto;html=1;exitX=0;exitY=0.5;exitDx=0;exitDy=0;entryX=1;entryY=0.5;entryDx=0;entryDy=0;strokeColor=default;align=center;verticalAlign=middle;fontFamily=Helvetica;fontSize=12;fontColor=default;labelBackgroundColor=default;startFill=0;endArrow=none;" edge="1" parent="1" source="BaX5ZBMZweJ76i1v1zu9-7" target="BaX5ZBMZweJ76i1v1zu9-4">
          <mxGeometry relative="1" as="geometry" />
        </mxCell>
        <mxCell id="BaX5ZBMZweJ76i1v1zu9-7" value="" style="rhombus;whiteSpace=wrap;html=1;strokeColor=#b85450;align=center;verticalAlign=middle;fontFamily=Helvetica;fontSize=12;fillColor=#f8cecc;" vertex="1" parent="1">
          <mxGeometry x="520" y="180" width="40" height="40" as="geometry" />
        </mxCell>
        <mxCell id="BaX5ZBMZweJ76i1v1zu9-11" style="edgeStyle=none;shape=connector;rounded=0;orthogonalLoop=1;jettySize=auto;html=1;exitX=0.5;exitY=0;exitDx=0;exitDy=0;entryX=0.25;entryY=1;entryDx=0;entryDy=0;strokeColor=default;align=center;verticalAlign=middle;fontFamily=Helvetica;fontSize=12;fontColor=default;labelBackgroundColor=default;startFill=0;endArrow=none;" edge="1" parent="1" source="BaX5ZBMZweJ76i1v1zu9-10" target="BaX5ZBMZweJ76i1v1zu9-4">
          <mxGeometry relative="1" as="geometry" />
        </mxCell>
        <mxCell id="BaX5ZBMZweJ76i1v1zu9-12" style="edgeStyle=none;shape=connector;rounded=0;orthogonalLoop=1;jettySize=auto;html=1;exitX=0.5;exitY=1;exitDx=0;exitDy=0;entryX=0.25;entryY=0;entryDx=0;entryDy=0;strokeColor=default;align=center;verticalAlign=middle;fontFamily=Helvetica;fontSize=12;fontColor=default;labelBackgroundColor=default;startFill=0;endArrow=none;" edge="1" parent="1" source="BaX5ZBMZweJ76i1v1zu9-10" target="BaX5ZBMZweJ76i1v1zu9-3">
          <mxGeometry relative="1" as="geometry" />
        </mxCell>
        <mxCell id="BaX5ZBMZweJ76i1v1zu9-10" value="" style="rhombus;whiteSpace=wrap;html=1;strokeColor=#b85450;align=center;verticalAlign=middle;fontFamily=Helvetica;fontSize=12;fillColor=#f8cecc;" vertex="1" parent="1">
          <mxGeometry x="370" y="320" width="40" height="40" as="geometry" />
        </mxCell>
        <mxCell id="BaX5ZBMZweJ76i1v1zu9-16" style="edgeStyle=none;shape=connector;rounded=0;orthogonalLoop=1;jettySize=auto;html=1;exitX=0.5;exitY=0;exitDx=0;exitDy=0;entryX=0.75;entryY=1;entryDx=0;entryDy=0;strokeColor=default;align=center;verticalAlign=middle;fontFamily=Helvetica;fontSize=12;fontColor=default;labelBackgroundColor=default;startFill=0;endArrow=none;" edge="1" parent="1" source="BaX5ZBMZweJ76i1v1zu9-14" target="4k0wfkkiHkNcyjWY7Jx8-4">
          <mxGeometry relative="1" as="geometry" />
        </mxCell>
        <mxCell id="BaX5ZBMZweJ76i1v1zu9-14" value="" style="rhombus;whiteSpace=wrap;html=1;strokeColor=#b85450;align=center;verticalAlign=middle;fontFamily=Helvetica;fontSize=12;fillColor=#f8cecc;" vertex="1" parent="1">
          <mxGeometry x="670" y="320" width="40" height="40" as="geometry" />
        </mxCell>
        <mxCell id="BaX5ZBMZweJ76i1v1zu9-19" style="edgeStyle=none;shape=connector;rounded=0;orthogonalLoop=1;jettySize=auto;html=1;exitX=0;exitY=0.5;exitDx=0;exitDy=0;strokeColor=default;align=center;verticalAlign=middle;fontFamily=Helvetica;fontSize=12;fontColor=default;labelBackgroundColor=default;startFill=0;endArrow=none;entryX=1;entryY=0.5;entryDx=0;entryDy=0;" edge="1" parent="1" source="BaX5ZBMZweJ76i1v1zu9-17" target="BaX5ZBMZweJ76i1v1zu9-3">
          <mxGeometry relative="1" as="geometry">
            <mxPoint x="490" y="480" as="targetPoint" />
          </mxGeometry>
        </mxCell>
        <mxCell id="BaX5ZBMZweJ76i1v1zu9-17" value="" style="rhombus;whiteSpace=wrap;html=1;strokeColor=#b85450;align=center;verticalAlign=middle;fontFamily=Helvetica;fontSize=12;fillColor=#f8cecc;" vertex="1" parent="1">
          <mxGeometry x="520" y="460" width="40" height="40" as="geometry" />
        </mxCell>
        <mxCell id="BaX5ZBMZweJ76i1v1zu9-20" value="Серия и номер паспорта" style="ellipse;whiteSpace=wrap;html=1;strokeColor=#82b366;align=center;verticalAlign=middle;fontFamily=Helvetica;fontSize=12;fillColor=#d5e8d4;" vertex="1" parent="1">
          <mxGeometry x="30" y="120" width="80" height="40" as="geometry" />
        </mxCell>
        <mxCell id="BaX5ZBMZweJ76i1v1zu9-22" value="ID" style="ellipse;whiteSpace=wrap;html=1;strokeColor=#82b366;align=center;verticalAlign=middle;fontFamily=Helvetica;fontSize=12;fillColor=#d5e8d4;" vertex="1" parent="1">
          <mxGeometry x="100" y="280" width="80" height="40" as="geometry" />
        </mxCell>
        <mxCell id="BaX5ZBMZweJ76i1v1zu9-27" style="edgeStyle=none;shape=connector;rounded=0;orthogonalLoop=1;jettySize=auto;html=1;exitX=1;exitY=0.5;exitDx=0;exitDy=0;entryX=0;entryY=0.5;entryDx=0;entryDy=0;strokeColor=default;align=center;verticalAlign=middle;fontFamily=Helvetica;fontSize=12;fontColor=default;labelBackgroundColor=default;startFill=0;endArrow=none;" edge="1" parent="1" source="BaX5ZBMZweJ76i1v1zu9-24" target="4k0wfkkiHkNcyjWY7Jx8-1">
          <mxGeometry relative="1" as="geometry" />
        </mxCell>
        <mxCell id="BaX5ZBMZweJ76i1v1zu9-24" value="Имя" style="ellipse;whiteSpace=wrap;html=1;strokeColor=#82b366;align=center;verticalAlign=middle;fontFamily=Helvetica;fontSize=12;fillColor=#d5e8d4;" vertex="1" parent="1">
          <mxGeometry x="10" y="180" width="80" height="40" as="geometry" />
        </mxCell>
        <mxCell id="BaX5ZBMZweJ76i1v1zu9-26" style="edgeStyle=none;shape=connector;rounded=0;orthogonalLoop=1;jettySize=auto;html=1;exitX=1;exitY=0.5;exitDx=0;exitDy=0;entryX=0;entryY=0.75;entryDx=0;entryDy=0;strokeColor=default;align=center;verticalAlign=middle;fontFamily=Helvetica;fontSize=12;fontColor=default;labelBackgroundColor=default;startFill=0;endArrow=none;" edge="1" parent="1" source="BaX5ZBMZweJ76i1v1zu9-25" target="4k0wfkkiHkNcyjWY7Jx8-1">
          <mxGeometry relative="1" as="geometry" />
        </mxCell>
        <mxCell id="BaX5ZBMZweJ76i1v1zu9-25" value="Адрес" style="ellipse;whiteSpace=wrap;html=1;strokeColor=#82b366;align=center;verticalAlign=middle;fontFamily=Helvetica;fontSize=12;fillColor=#d5e8d4;" vertex="1" parent="1">
          <mxGeometry x="20" y="240" width="80" height="40" as="geometry" />
        </mxCell>
        <mxCell id="BaX5ZBMZweJ76i1v1zu9-28" value="1" style="text;html=1;align=center;verticalAlign=middle;resizable=0;points=[];autosize=1;strokeColor=none;fillColor=none;fontFamily=Helvetica;fontSize=12;fontColor=default;" vertex="1" parent="1">
          <mxGeometry x="240" y="200" width="30" height="30" as="geometry" />
        </mxCell>
        <mxCell id="BaX5ZBMZweJ76i1v1zu9-29" value="1" style="text;html=1;align=center;verticalAlign=middle;resizable=0;points=[];autosize=1;strokeColor=none;fillColor=none;fontFamily=Helvetica;fontSize=12;fontColor=default;" vertex="1" parent="1">
          <mxGeometry x="330" y="200" width="30" height="30" as="geometry" />
        </mxCell>
        <mxCell id="BaX5ZBMZweJ76i1v1zu9-30" value="1" style="text;html=1;align=center;verticalAlign=middle;resizable=0;points=[];autosize=1;strokeColor=none;fillColor=none;fontFamily=Helvetica;fontSize=12;fontColor=default;" vertex="1" parent="1">
          <mxGeometry x="570" y="200" width="30" height="30" as="geometry" />
        </mxCell>
        <mxCell id="BaX5ZBMZweJ76i1v1zu9-31" value="М" style="text;html=1;align=center;verticalAlign=middle;resizable=0;points=[];autosize=1;strokeColor=none;fillColor=none;fontFamily=Helvetica;fontSize=12;fontColor=default;" vertex="1" parent="1">
          <mxGeometry x="480" y="200" width="30" height="30" as="geometry" />
        </mxCell>
        <mxCell id="BaX5ZBMZweJ76i1v1zu9-32" value="М" style="text;html=1;align=center;verticalAlign=middle;resizable=0;points=[];autosize=1;strokeColor=none;fillColor=none;fontFamily=Helvetica;fontSize=12;fontColor=default;" vertex="1" parent="1">
          <mxGeometry x="360" y="240" width="30" height="30" as="geometry" />
        </mxCell>
        <mxCell id="BaX5ZBMZweJ76i1v1zu9-33" value="1" style="text;html=1;align=center;verticalAlign=middle;resizable=0;points=[];autosize=1;strokeColor=none;fillColor=none;fontFamily=Helvetica;fontSize=12;fontColor=default;" vertex="1" parent="1">
          <mxGeometry x="360" y="410" width="30" height="30" as="geometry" />
        </mxCell>
        <mxCell id="BaX5ZBMZweJ76i1v1zu9-37" style="edgeStyle=none;shape=connector;rounded=0;orthogonalLoop=1;jettySize=auto;html=1;exitX=1;exitY=0.5;exitDx=0;exitDy=0;entryX=0;entryY=0.25;entryDx=0;entryDy=0;strokeColor=default;align=center;verticalAlign=middle;fontFamily=Helvetica;fontSize=12;fontColor=default;labelBackgroundColor=default;startFill=0;endArrow=none;" edge="1" parent="1" source="BaX5ZBMZweJ76i1v1zu9-34" target="BaX5ZBMZweJ76i1v1zu9-3">
          <mxGeometry relative="1" as="geometry" />
        </mxCell>
        <mxCell id="BaX5ZBMZweJ76i1v1zu9-34" value="Уникальное название" style="ellipse;whiteSpace=wrap;html=1;strokeColor=#82b366;align=center;verticalAlign=middle;fontFamily=Helvetica;fontSize=12;fillColor=#d5e8d4;" vertex="1" parent="1">
          <mxGeometry x="240" y="440" width="80" height="40" as="geometry" />
        </mxCell>
        <mxCell id="BaX5ZBMZweJ76i1v1zu9-38" style="edgeStyle=none;shape=connector;rounded=0;orthogonalLoop=1;jettySize=auto;html=1;exitX=1;exitY=0;exitDx=0;exitDy=0;entryX=0;entryY=0.75;entryDx=0;entryDy=0;strokeColor=default;align=center;verticalAlign=middle;fontFamily=Helvetica;fontSize=12;fontColor=default;labelBackgroundColor=default;startFill=0;endArrow=none;" edge="1" parent="1" source="BaX5ZBMZweJ76i1v1zu9-35" target="BaX5ZBMZweJ76i1v1zu9-3">
          <mxGeometry relative="1" as="geometry" />
        </mxCell>
        <mxCell id="BaX5ZBMZweJ76i1v1zu9-35" value="Тип" style="ellipse;whiteSpace=wrap;html=1;strokeColor=#82b366;align=center;verticalAlign=middle;fontFamily=Helvetica;fontSize=12;fillColor=#d5e8d4;" vertex="1" parent="1">
          <mxGeometry x="240" y="520" width="80" height="40" as="geometry" />
        </mxCell>
        <mxCell id="BaX5ZBMZweJ76i1v1zu9-36" value="Количество передач" style="ellipse;whiteSpace=wrap;html=1;strokeColor=#82b366;align=center;verticalAlign=middle;fontFamily=Helvetica;fontSize=12;fillColor=#d5e8d4;" vertex="1" parent="1">
          <mxGeometry x="305" y="570" width="80" height="40" as="geometry" />
        </mxCell>
        <mxCell id="BaX5ZBMZweJ76i1v1zu9-39" style="edgeStyle=none;shape=connector;rounded=0;orthogonalLoop=1;jettySize=auto;html=1;exitX=0.5;exitY=0;exitDx=0;exitDy=0;entryX=0.31;entryY=1.03;entryDx=0;entryDy=0;entryPerimeter=0;strokeColor=default;align=center;verticalAlign=middle;fontFamily=Helvetica;fontSize=12;fontColor=default;labelBackgroundColor=default;startFill=0;endArrow=none;" edge="1" parent="1" source="BaX5ZBMZweJ76i1v1zu9-36" target="BaX5ZBMZweJ76i1v1zu9-3">
          <mxGeometry relative="1" as="geometry" />
        </mxCell>
        <mxCell id="BaX5ZBMZweJ76i1v1zu9-41" value="1" style="text;html=1;align=center;verticalAlign=middle;resizable=0;points=[];autosize=1;strokeColor=none;fillColor=none;fontFamily=Helvetica;fontSize=12;fontColor=default;" vertex="1" parent="1">
          <mxGeometry x="480" y="450" width="30" height="30" as="geometry" />
        </mxCell>
        <mxCell id="BaX5ZBMZweJ76i1v1zu9-42" value="М" style="text;html=1;align=center;verticalAlign=middle;resizable=0;points=[];autosize=1;strokeColor=none;fillColor=none;fontFamily=Helvetica;fontSize=12;fontColor=default;" vertex="1" parent="1">
          <mxGeometry x="570" y="450" width="30" height="30" as="geometry" />
        </mxCell>
        <mxCell id="BaX5ZBMZweJ76i1v1zu9-43" value="М" style="text;html=1;align=center;verticalAlign=middle;resizable=0;points=[];autosize=1;strokeColor=none;fillColor=none;fontFamily=Helvetica;fontSize=12;fontColor=default;" vertex="1" parent="1">
          <mxGeometry x="690" y="410" width="30" height="30" as="geometry" />
        </mxCell>
        <mxCell id="BaX5ZBMZweJ76i1v1zu9-44" value="1" style="text;html=1;align=center;verticalAlign=middle;resizable=0;points=[];autosize=1;strokeColor=none;fillColor=none;fontFamily=Helvetica;fontSize=12;fontColor=default;" vertex="1" parent="1">
          <mxGeometry x="690" y="240" width="30" height="30" as="geometry" />
        </mxCell>
        <mxCell id="BaX5ZBMZweJ76i1v1zu9-46" style="edgeStyle=none;shape=connector;rounded=0;orthogonalLoop=1;jettySize=auto;html=1;exitX=0;exitY=0.5;exitDx=0;exitDy=0;entryX=1;entryY=0.75;entryDx=0;entryDy=0;strokeColor=default;align=center;verticalAlign=middle;fontFamily=Helvetica;fontSize=12;fontColor=default;labelBackgroundColor=default;startFill=0;endArrow=none;" edge="1" parent="1" source="BaX5ZBMZweJ76i1v1zu9-45" target="4k0wfkkiHkNcyjWY7Jx8-4">
          <mxGeometry relative="1" as="geometry" />
        </mxCell>
        <mxCell id="BaX5ZBMZweJ76i1v1zu9-45" value="Уникальное имя" style="ellipse;whiteSpace=wrap;html=1;strokeColor=#82b366;align=center;verticalAlign=middle;fontFamily=Helvetica;fontSize=12;fillColor=#d5e8d4;" vertex="1" parent="1">
          <mxGeometry x="780" y="210" width="80" height="40" as="geometry" />
        </mxCell>
        <mxCell id="BaX5ZBMZweJ76i1v1zu9-48" style="edgeStyle=none;shape=connector;rounded=0;orthogonalLoop=1;jettySize=auto;html=1;exitX=0;exitY=0.5;exitDx=0;exitDy=0;entryX=1;entryY=0.375;entryDx=0;entryDy=0;strokeColor=default;align=center;verticalAlign=middle;fontFamily=Helvetica;fontSize=12;fontColor=default;labelBackgroundColor=default;startFill=0;endArrow=none;entryPerimeter=0;" edge="1" parent="1" source="BaX5ZBMZweJ76i1v1zu9-47" target="4k0wfkkiHkNcyjWY7Jx8-4">
          <mxGeometry relative="1" as="geometry" />
        </mxCell>
        <mxCell id="BaX5ZBMZweJ76i1v1zu9-47" value="Адрес" style="ellipse;whiteSpace=wrap;html=1;strokeColor=#82b366;align=center;verticalAlign=middle;fontFamily=Helvetica;fontSize=12;fillColor=#d5e8d4;" vertex="1" parent="1">
          <mxGeometry x="780" y="160" width="80" height="40" as="geometry" />
        </mxCell>
        <mxCell id="lmWJ4_sTHjdbhTflXQGY-2" style="edgeStyle=none;shape=connector;rounded=0;orthogonalLoop=1;jettySize=auto;html=1;exitX=0.5;exitY=1;exitDx=0;exitDy=0;entryX=0.25;entryY=0;entryDx=0;entryDy=0;strokeColor=default;align=center;verticalAlign=middle;fontFamily=Helvetica;fontSize=12;fontColor=default;labelBackgroundColor=default;startFill=0;endArrow=none;endFill=0;" edge="1" parent="1" source="lmWJ4_sTHjdbhTflXQGY-1" target="BaX5ZBMZweJ76i1v1zu9-4">
          <mxGeometry relative="1" as="geometry" />
        </mxCell>
        <mxCell id="lmWJ4_sTHjdbhTflXQGY-1" value="Дата начала аренды" style="ellipse;whiteSpace=wrap;html=1;strokeColor=#82b366;align=center;verticalAlign=middle;fontFamily=Helvetica;fontSize=12;fillColor=#d5e8d4;" vertex="1" parent="1">
          <mxGeometry x="320" y="80" width="80" height="40" as="geometry" />
        </mxCell>
        <mxCell id="lmWJ4_sTHjdbhTflXQGY-4" style="edgeStyle=none;shape=connector;rounded=0;orthogonalLoop=1;jettySize=auto;html=1;exitX=0.5;exitY=1;exitDx=0;exitDy=0;entryX=0.75;entryY=0;entryDx=0;entryDy=0;strokeColor=default;align=center;verticalAlign=middle;fontFamily=Helvetica;fontSize=12;fontColor=default;labelBackgroundColor=default;startFill=0;endArrow=none;endFill=0;" edge="1" parent="1" source="lmWJ4_sTHjdbhTflXQGY-3" target="BaX5ZBMZweJ76i1v1zu9-4">
          <mxGeometry relative="1" as="geometry" />
        </mxCell>
        <mxCell id="lmWJ4_sTHjdbhTflXQGY-3" value="Дата конца аренды" style="ellipse;whiteSpace=wrap;html=1;strokeColor=#82b366;align=center;verticalAlign=middle;fontFamily=Helvetica;fontSize=12;fillColor=#d5e8d4;" vertex="1" parent="1">
          <mxGeometry x="440" y="80" width="80" height="40" as="geometry" />
        </mxCell>
        <mxCell id="lmWJ4_sTHjdbhTflXQGY-18" style="edgeStyle=none;shape=connector;rounded=0;orthogonalLoop=1;jettySize=auto;html=1;exitX=0.5;exitY=0;exitDx=0;exitDy=0;entryX=0.5;entryY=1;entryDx=0;entryDy=0;strokeColor=default;align=center;verticalAlign=middle;fontFamily=Helvetica;fontSize=12;fontColor=default;labelBackgroundColor=default;startFill=0;endArrow=none;endFill=0;" edge="1" parent="1" source="lmWJ4_sTHjdbhTflXQGY-9" target="lmWJ4_sTHjdbhTflXQGY-17">
          <mxGeometry relative="1" as="geometry" />
        </mxCell>
        <mxCell id="lmWJ4_sTHjdbhTflXQGY-9" value="Работник магазинов" style="rounded=0;whiteSpace=wrap;html=1;strokeColor=#6c8ebf;align=center;verticalAlign=middle;fontFamily=Helvetica;fontSize=12;fillColor=#dae8fc;" vertex="1" parent="1">
          <mxGeometry x="600" y="-40" width="120" height="80" as="geometry" />
        </mxCell>
        <mxCell id="lmWJ4_sTHjdbhTflXQGY-12" style="edgeStyle=none;shape=connector;rounded=0;orthogonalLoop=1;jettySize=auto;html=1;exitX=0.5;exitY=0;exitDx=0;exitDy=0;entryX=0.5;entryY=1;entryDx=0;entryDy=0;strokeColor=default;align=center;verticalAlign=middle;fontFamily=Helvetica;fontSize=12;fontColor=default;labelBackgroundColor=default;startFill=0;endArrow=none;endFill=0;" edge="1" parent="1" source="lmWJ4_sTHjdbhTflXQGY-10" target="lmWJ4_sTHjdbhTflXQGY-9">
          <mxGeometry relative="1" as="geometry" />
        </mxCell>
        <mxCell id="lmWJ4_sTHjdbhTflXQGY-10" value="" style="rhombus;whiteSpace=wrap;html=1;strokeColor=#b85450;align=center;verticalAlign=middle;fontFamily=Helvetica;fontSize=12;fillColor=#f8cecc;" vertex="1" parent="1">
          <mxGeometry x="640" y="80" width="40" height="40" as="geometry" />
        </mxCell>
        <mxCell id="lmWJ4_sTHjdbhTflXQGY-13" value="1" style="text;html=1;align=center;verticalAlign=middle;resizable=0;points=[];autosize=1;strokeColor=none;fillColor=none;fontFamily=Helvetica;fontSize=12;fontColor=default;" vertex="1" parent="1">
          <mxGeometry x="630" y="130" width="30" height="30" as="geometry" />
        </mxCell>
        <mxCell id="lmWJ4_sTHjdbhTflXQGY-14" value="М" style="text;html=1;align=center;verticalAlign=middle;resizable=0;points=[];autosize=1;strokeColor=none;fillColor=none;fontFamily=Helvetica;fontSize=12;fontColor=default;" vertex="1" parent="1">
          <mxGeometry x="630" y="40" width="30" height="30" as="geometry" />
        </mxCell>
        <mxCell id="lmWJ4_sTHjdbhTflXQGY-17" value="Имя" style="ellipse;whiteSpace=wrap;html=1;strokeColor=#82b366;align=center;verticalAlign=middle;fontFamily=Helvetica;fontSize=12;fillColor=#d5e8d4;" vertex="1" parent="1">
          <mxGeometry x="520" y="-110" width="80" height="40" as="geometry" />
        </mxCell>
        <mxCell id="lmWJ4_sTHjdbhTflXQGY-19" value="Администратор системы" style="rounded=0;whiteSpace=wrap;html=1;strokeColor=#6c8ebf;align=center;verticalAlign=middle;fontFamily=Helvetica;fontSize=12;fillColor=#dae8fc;" vertex="1" parent="1">
          <mxGeometry x="-120" y="-40" width="120" height="80" as="geometry" />
        </mxCell>
        <mxCell id="lmWJ4_sTHjdbhTflXQGY-23" style="edgeStyle=none;shape=connector;rounded=0;orthogonalLoop=1;jettySize=auto;html=1;exitX=0.5;exitY=1;exitDx=0;exitDy=0;entryX=0.75;entryY=0;entryDx=0;entryDy=0;strokeColor=default;align=center;verticalAlign=middle;fontFamily=Helvetica;fontSize=12;fontColor=default;labelBackgroundColor=default;startFill=0;endArrow=none;endFill=0;" edge="1" parent="1" source="lmWJ4_sTHjdbhTflXQGY-21" target="lmWJ4_sTHjdbhTflXQGY-19">
          <mxGeometry relative="1" as="geometry" />
        </mxCell>
        <mxCell id="lmWJ4_sTHjdbhTflXQGY-21" value="Имя" style="ellipse;whiteSpace=wrap;html=1;strokeColor=#82b366;align=center;verticalAlign=middle;fontFamily=Helvetica;fontSize=12;fillColor=#d5e8d4;" vertex="1" parent="1">
          <mxGeometry x="-25" y="-100" width="80" height="40" as="geometry" />
        </mxCell>
        <mxCell id="lmWJ4_sTHjdbhTflXQGY-25" style="edgeStyle=none;shape=connector;rounded=0;orthogonalLoop=1;jettySize=auto;html=1;exitX=0.5;exitY=0;exitDx=0;exitDy=0;entryX=0.75;entryY=1;entryDx=0;entryDy=0;strokeColor=default;align=center;verticalAlign=middle;fontFamily=Helvetica;fontSize=12;fontColor=default;labelBackgroundColor=default;startFill=0;endArrow=none;endFill=0;" edge="1" parent="1" source="lmWJ4_sTHjdbhTflXQGY-24" target="4k0wfkkiHkNcyjWY7Jx8-1">
          <mxGeometry relative="1" as="geometry" />
        </mxCell>
        <mxCell id="lmWJ4_sTHjdbhTflXQGY-24" value="Пароль" style="ellipse;whiteSpace=wrap;html=1;strokeColor=#82b366;align=center;verticalAlign=middle;fontFamily=Helvetica;fontSize=12;fillColor=#d5e8d4;" vertex="1" parent="1">
          <mxGeometry x="190" y="280" width="80" height="40" as="geometry" />
        </mxCell>
        <mxCell id="lmWJ4_sTHjdbhTflXQGY-27" style="edgeStyle=none;shape=connector;rounded=0;orthogonalLoop=1;jettySize=auto;html=1;exitX=0.5;exitY=1;exitDx=0;exitDy=0;entryX=0.25;entryY=0;entryDx=0;entryDy=0;strokeColor=default;align=center;verticalAlign=middle;fontFamily=Helvetica;fontSize=12;fontColor=default;labelBackgroundColor=default;startFill=0;endArrow=none;endFill=0;" edge="1" parent="1" source="lmWJ4_sTHjdbhTflXQGY-26" target="lmWJ4_sTHjdbhTflXQGY-19">
          <mxGeometry relative="1" as="geometry">
            <mxPoint x="78.28427124746213" y="-235.85786437626894" as="sourcePoint" />
          </mxGeometry>
        </mxCell>
        <mxCell id="lmWJ4_sTHjdbhTflXQGY-26" value="Пароль" style="ellipse;whiteSpace=wrap;html=1;strokeColor=#82b366;align=center;verticalAlign=middle;fontFamily=Helvetica;fontSize=12;fillColor=#d5e8d4;" vertex="1" parent="1">
          <mxGeometry x="-180" y="-100" width="80" height="40" as="geometry" />
        </mxCell>
        <mxCell id="lmWJ4_sTHjdbhTflXQGY-29" style="edgeStyle=none;shape=connector;rounded=0;orthogonalLoop=1;jettySize=auto;html=1;exitX=0;exitY=1;exitDx=0;exitDy=0;entryX=0.5;entryY=0;entryDx=0;entryDy=0;strokeColor=default;align=center;verticalAlign=middle;fontFamily=Helvetica;fontSize=12;fontColor=default;labelBackgroundColor=default;startFill=0;endArrow=none;endFill=0;" edge="1" parent="1" source="lmWJ4_sTHjdbhTflXQGY-28" target="lmWJ4_sTHjdbhTflXQGY-9">
          <mxGeometry relative="1" as="geometry" />
        </mxCell>
        <mxCell id="lmWJ4_sTHjdbhTflXQGY-28" value="Пароль" style="ellipse;whiteSpace=wrap;html=1;strokeColor=#82b366;align=center;verticalAlign=middle;fontFamily=Helvetica;fontSize=12;fillColor=#d5e8d4;" vertex="1" parent="1">
          <mxGeometry x="720" y="-110" width="80" height="40" as="geometry" />
        </mxCell>
        <mxCell id="lmWJ4_sTHjdbhTflXQGY-36" style="edgeStyle=none;shape=connector;rounded=0;orthogonalLoop=1;jettySize=auto;html=1;exitX=1;exitY=0.5;exitDx=0;exitDy=0;strokeColor=default;align=center;verticalAlign=middle;fontFamily=Helvetica;fontSize=12;fontColor=default;labelBackgroundColor=default;startFill=0;endArrow=none;endFill=0;entryX=0;entryY=0.5;entryDx=0;entryDy=0;" edge="1" parent="1" source="lmWJ4_sTHjdbhTflXQGY-30" target="lmWJ4_sTHjdbhTflXQGY-44">
          <mxGeometry relative="1" as="geometry">
            <mxPoint x="280" as="targetPoint" />
          </mxGeometry>
        </mxCell>
        <mxCell id="lmWJ4_sTHjdbhTflXQGY-30" value="Роль" style="rounded=0;whiteSpace=wrap;html=1;strokeColor=#6c8ebf;align=center;verticalAlign=middle;fontFamily=Helvetica;fontSize=12;fillColor=#dae8fc;" vertex="1" parent="1">
          <mxGeometry x="120" y="-40" width="120" height="80" as="geometry" />
        </mxCell>
        <mxCell id="lmWJ4_sTHjdbhTflXQGY-33" style="edgeStyle=none;shape=connector;rounded=0;orthogonalLoop=1;jettySize=auto;html=1;exitX=0.5;exitY=0;exitDx=0;exitDy=0;entryX=0.5;entryY=1;entryDx=0;entryDy=0;strokeColor=default;align=center;verticalAlign=middle;fontFamily=Helvetica;fontSize=12;fontColor=default;labelBackgroundColor=default;startFill=0;endArrow=none;endFill=0;" edge="1" parent="1" source="lmWJ4_sTHjdbhTflXQGY-31" target="lmWJ4_sTHjdbhTflXQGY-30">
          <mxGeometry relative="1" as="geometry" />
        </mxCell>
        <mxCell id="lmWJ4_sTHjdbhTflXQGY-31" value="" style="rhombus;whiteSpace=wrap;html=1;strokeColor=#b85450;align=center;verticalAlign=middle;fontFamily=Helvetica;fontSize=12;fillColor=#f8cecc;" vertex="1" parent="1">
          <mxGeometry x="160" y="80" width="40" height="40" as="geometry" />
        </mxCell>
        <mxCell id="lmWJ4_sTHjdbhTflXQGY-34" value="М" style="text;html=1;align=center;verticalAlign=middle;resizable=0;points=[];autosize=1;strokeColor=none;fillColor=none;fontFamily=Helvetica;fontSize=12;fontColor=default;" vertex="1" parent="1">
          <mxGeometry x="180" y="130" width="30" height="30" as="geometry" />
        </mxCell>
        <mxCell id="lmWJ4_sTHjdbhTflXQGY-35" value="1" style="text;html=1;align=center;verticalAlign=middle;resizable=0;points=[];autosize=1;strokeColor=none;fillColor=none;fontFamily=Helvetica;fontSize=12;fontColor=default;" vertex="1" parent="1">
          <mxGeometry x="180" y="40" width="30" height="30" as="geometry" />
        </mxCell>
        <mxCell id="lmWJ4_sTHjdbhTflXQGY-39" style="edgeStyle=none;shape=connector;rounded=0;orthogonalLoop=1;jettySize=auto;html=1;exitX=0;exitY=0.5;exitDx=0;exitDy=0;entryX=1;entryY=0.5;entryDx=0;entryDy=0;strokeColor=default;align=center;verticalAlign=middle;fontFamily=Helvetica;fontSize=12;fontColor=default;labelBackgroundColor=default;startFill=0;endArrow=none;endFill=0;" edge="1" parent="1" target="lmWJ4_sTHjdbhTflXQGY-41" source="lmWJ4_sTHjdbhTflXQGY-30">
          <mxGeometry relative="1" as="geometry">
            <mxPoint x="180" y="-40" as="sourcePoint" />
          </mxGeometry>
        </mxCell>
        <mxCell id="lmWJ4_sTHjdbhTflXQGY-40" style="edgeStyle=none;shape=connector;rounded=0;orthogonalLoop=1;jettySize=auto;html=1;exitX=0;exitY=0.5;exitDx=0;exitDy=0;strokeColor=default;align=center;verticalAlign=middle;fontFamily=Helvetica;fontSize=12;fontColor=default;labelBackgroundColor=default;startFill=0;endArrow=none;endFill=0;entryX=1;entryY=0.5;entryDx=0;entryDy=0;" edge="1" parent="1" source="lmWJ4_sTHjdbhTflXQGY-41" target="lmWJ4_sTHjdbhTflXQGY-19">
          <mxGeometry relative="1" as="geometry">
            <mxPoint x="180" y="-160" as="targetPoint" />
          </mxGeometry>
        </mxCell>
        <mxCell id="lmWJ4_sTHjdbhTflXQGY-41" value="" style="rhombus;whiteSpace=wrap;html=1;strokeColor=#b85450;align=center;verticalAlign=middle;fontFamily=Helvetica;fontSize=12;fillColor=#f8cecc;" vertex="1" parent="1">
          <mxGeometry x="40" y="-20" width="40" height="40" as="geometry" />
        </mxCell>
        <mxCell id="lmWJ4_sTHjdbhTflXQGY-45" style="edgeStyle=none;shape=connector;rounded=0;orthogonalLoop=1;jettySize=auto;html=1;exitX=1;exitY=0.5;exitDx=0;exitDy=0;entryX=0;entryY=0.5;entryDx=0;entryDy=0;strokeColor=default;align=center;verticalAlign=middle;fontFamily=Helvetica;fontSize=12;fontColor=default;labelBackgroundColor=default;startFill=0;endArrow=none;endFill=0;" edge="1" parent="1" source="lmWJ4_sTHjdbhTflXQGY-44" target="lmWJ4_sTHjdbhTflXQGY-9">
          <mxGeometry relative="1" as="geometry" />
        </mxCell>
        <mxCell id="lmWJ4_sTHjdbhTflXQGY-44" value="" style="rhombus;whiteSpace=wrap;html=1;strokeColor=#b85450;align=center;verticalAlign=middle;fontFamily=Helvetica;fontSize=12;fillColor=#f8cecc;" vertex="1" parent="1">
          <mxGeometry x="400" y="-20" width="40" height="40" as="geometry" />
        </mxCell>
        <mxCell id="lmWJ4_sTHjdbhTflXQGY-46" value="1" style="text;html=1;align=center;verticalAlign=middle;resizable=0;points=[];autosize=1;strokeColor=none;fillColor=none;fontFamily=Helvetica;fontSize=12;fontColor=default;" vertex="1" parent="1">
          <mxGeometry x="90" y="-30" width="30" height="30" as="geometry" />
        </mxCell>
        <mxCell id="lmWJ4_sTHjdbhTflXQGY-47" value="М" style="text;html=1;align=center;verticalAlign=middle;resizable=0;points=[];autosize=1;strokeColor=none;fillColor=none;fontFamily=Helvetica;fontSize=12;fontColor=default;" vertex="1" parent="1">
          <mxGeometry y="-30" width="30" height="30" as="geometry" />
        </mxCell>
        <mxCell id="lmWJ4_sTHjdbhTflXQGY-48" value="1" style="text;html=1;align=center;verticalAlign=middle;resizable=0;points=[];autosize=1;strokeColor=none;fillColor=none;fontFamily=Helvetica;fontSize=12;fontColor=default;" vertex="1" parent="1">
          <mxGeometry x="240" y="-30" width="30" height="30" as="geometry" />
        </mxCell>
        <mxCell id="lmWJ4_sTHjdbhTflXQGY-49" value="М" style="text;html=1;align=center;verticalAlign=middle;resizable=0;points=[];autosize=1;strokeColor=none;fillColor=none;fontFamily=Helvetica;fontSize=12;fontColor=default;" vertex="1" parent="1">
          <mxGeometry x="570" y="-30" width="30" height="30" as="geometry" />
        </mxCell>
        <mxCell id="NS2_Ea8B9K1IMDKr6amD-2" style="edgeStyle=none;shape=connector;rounded=0;orthogonalLoop=1;jettySize=auto;html=1;exitX=0.5;exitY=1;exitDx=0;exitDy=0;entryX=0.5;entryY=0;entryDx=0;entryDy=0;strokeColor=default;align=center;verticalAlign=middle;fontFamily=Helvetica;fontSize=12;fontColor=default;labelBackgroundColor=default;startFill=0;endArrow=none;endFill=0;" edge="1" parent="1" source="NS2_Ea8B9K1IMDKr6amD-1" target="lmWJ4_sTHjdbhTflXQGY-19">
          <mxGeometry relative="1" as="geometry" />
        </mxCell>
        <mxCell id="NS2_Ea8B9K1IMDKr6amD-1" value="ID" style="ellipse;whiteSpace=wrap;html=1;strokeColor=#82b366;align=center;verticalAlign=middle;fontFamily=Helvetica;fontSize=12;fillColor=#d5e8d4;" vertex="1" parent="1">
          <mxGeometry x="-100" y="-140" width="80" height="40" as="geometry" />
        </mxCell>
        <mxCell id="NS2_Ea8B9K1IMDKr6amD-4" style="edgeStyle=none;shape=connector;rounded=0;orthogonalLoop=1;jettySize=auto;html=1;exitX=0.5;exitY=1;exitDx=0;exitDy=0;entryX=0.5;entryY=0;entryDx=0;entryDy=0;strokeColor=default;align=center;verticalAlign=middle;fontFamily=Helvetica;fontSize=12;fontColor=default;labelBackgroundColor=default;startFill=0;endArrow=none;endFill=0;" edge="1" parent="1" source="NS2_Ea8B9K1IMDKr6amD-3" target="lmWJ4_sTHjdbhTflXQGY-9">
          <mxGeometry relative="1" as="geometry" />
        </mxCell>
        <mxCell id="NS2_Ea8B9K1IMDKr6amD-3" value="ID" style="ellipse;whiteSpace=wrap;html=1;strokeColor=#82b366;align=center;verticalAlign=middle;fontFamily=Helvetica;fontSize=12;fillColor=#d5e8d4;" vertex="1" parent="1">
          <mxGeometry x="620" y="-150" width="80" height="40" as="geometry" />
        </mxCell>
        <mxCell id="TpAXoVu1QkIn0_8xhT-U-2" value="Учет аренды" style="rounded=0;whiteSpace=wrap;html=1;strokeColor=#6c8ebf;align=center;verticalAlign=middle;fontFamily=Helvetica;fontSize=12;fillColor=#dae8fc;" vertex="1" parent="1">
          <mxGeometry x="480" y="300" width="120" height="80" as="geometry" />
        </mxCell>
        <mxCell id="TpAXoVu1QkIn0_8xhT-U-7" style="edgeStyle=none;shape=connector;rounded=0;orthogonalLoop=1;jettySize=auto;html=1;exitX=0.5;exitY=1;exitDx=0;exitDy=0;entryX=0;entryY=0.5;entryDx=0;entryDy=0;strokeColor=default;align=center;verticalAlign=middle;fontFamily=Helvetica;fontSize=12;fontColor=default;labelBackgroundColor=default;startFill=0;endArrow=none;endFill=0;" edge="1" parent="1" source="TpAXoVu1QkIn0_8xhT-U-5" target="TpAXoVu1QkIn0_8xhT-U-2">
          <mxGeometry relative="1" as="geometry" />
        </mxCell>
        <mxCell id="TpAXoVu1QkIn0_8xhT-U-5" value="" style="rhombus;whiteSpace=wrap;html=1;strokeColor=#b85450;align=center;verticalAlign=middle;fontFamily=Helvetica;fontSize=12;fillColor=#f8cecc;" vertex="1" parent="1">
          <mxGeometry x="430" y="280" width="40" height="40" as="geometry" />
        </mxCell>
        <mxCell id="TpAXoVu1QkIn0_8xhT-U-10" style="edgeStyle=none;shape=connector;rounded=0;orthogonalLoop=1;jettySize=auto;html=1;exitX=0.5;exitY=0;exitDx=0;exitDy=0;entryX=1;entryY=0.5;entryDx=0;entryDy=0;strokeColor=default;align=center;verticalAlign=middle;fontFamily=Helvetica;fontSize=12;fontColor=default;labelBackgroundColor=default;startFill=0;endArrow=none;endFill=0;" edge="1" parent="1" source="TpAXoVu1QkIn0_8xhT-U-8" target="TpAXoVu1QkIn0_8xhT-U-2">
          <mxGeometry relative="1" as="geometry" />
        </mxCell>
        <mxCell id="TpAXoVu1QkIn0_8xhT-U-8" value="" style="rhombus;whiteSpace=wrap;html=1;strokeColor=#b85450;align=center;verticalAlign=middle;fontFamily=Helvetica;fontSize=12;fillColor=#f8cecc;" vertex="1" parent="1">
          <mxGeometry x="610" y="360" width="40" height="40" as="geometry" />
        </mxCell>
        <mxCell id="TpAXoVu1QkIn0_8xhT-U-11" value="1" style="text;html=1;align=center;verticalAlign=middle;resizable=0;points=[];autosize=1;strokeColor=none;fillColor=none;fontFamily=Helvetica;fontSize=12;fontColor=default;" vertex="1" parent="1">
          <mxGeometry x="450" y="240" width="30" height="30" as="geometry" />
        </mxCell>
        <mxCell id="TpAXoVu1QkIn0_8xhT-U-12" value="1" style="text;html=1;align=center;verticalAlign=middle;resizable=0;points=[];autosize=1;strokeColor=none;fillColor=none;fontFamily=Helvetica;fontSize=12;fontColor=default;" vertex="1" parent="1">
          <mxGeometry x="450" y="325" width="30" height="30" as="geometry" />
        </mxCell>
        <mxCell id="TpAXoVu1QkIn0_8xhT-U-13" value="1" style="text;html=1;align=center;verticalAlign=middle;resizable=0;points=[];autosize=1;strokeColor=none;fillColor=none;fontFamily=Helvetica;fontSize=12;fontColor=default;" vertex="1" parent="1">
          <mxGeometry x="600" y="410" width="30" height="30" as="geometry" />
        </mxCell>
        <mxCell id="TpAXoVu1QkIn0_8xhT-U-14" value="1" style="text;html=1;align=center;verticalAlign=middle;resizable=0;points=[];autosize=1;strokeColor=none;fillColor=none;fontFamily=Helvetica;fontSize=12;fontColor=default;" vertex="1" parent="1">
          <mxGeometry x="600" y="320" width="30" height="30" as="geometry" />
        </mxCell>
      </root>
    </mxGraphModel>
  </diagram>
  <diagram id="wU98E98CuurVeB_qx9Rh" name="Реляционная модель">
    <mxGraphModel dx="1400" dy="839" grid="1" gridSize="10" guides="1" tooltips="1" connect="1" arrows="1" fold="1" page="1" pageScale="1" pageWidth="827" pageHeight="1169" math="0" shadow="0">
      <root>
        <mxCell id="0" />
        <mxCell id="1" parent="0" />
        <mxCell id="lTcktWHO_dT4Yb3yd9Bz-1" value="Администраторы_&lt;div&gt;системы&lt;/div&gt;" style="swimlane;fontStyle=0;childLayout=stackLayout;horizontal=1;startSize=30;horizontalStack=0;resizeParent=1;resizeParentMax=0;resizeLast=0;collapsible=1;marginBottom=0;whiteSpace=wrap;html=1;strokeColor=default;align=center;verticalAlign=middle;fontFamily=Helvetica;fontSize=12;fontColor=default;labelBackgroundColor=default;fillColor=default;" vertex="1" parent="1">
          <mxGeometry x="80" y="160" width="140" height="120" as="geometry" />
        </mxCell>
        <mxCell id="sufdZVAJLFECYwo_GzTB-1" value="ID" style="text;strokeColor=none;fillColor=none;align=left;verticalAlign=middle;spacingLeft=4;spacingRight=4;overflow=hidden;points=[[0,0.5],[1,0.5]];portConstraint=eastwest;rotatable=0;whiteSpace=wrap;html=1;fontFamily=Helvetica;fontSize=12;fontColor=default;labelBackgroundColor=default;" vertex="1" parent="lTcktWHO_dT4Yb3yd9Bz-1">
          <mxGeometry y="30" width="140" height="30" as="geometry" />
        </mxCell>
        <mxCell id="lTcktWHO_dT4Yb3yd9Bz-3" value="Имя" style="text;strokeColor=none;fillColor=none;align=left;verticalAlign=middle;spacingLeft=4;spacingRight=4;overflow=hidden;points=[[0,0.5],[1,0.5]];portConstraint=eastwest;rotatable=0;whiteSpace=wrap;html=1;fontFamily=Helvetica;fontSize=12;fontColor=default;labelBackgroundColor=default;" vertex="1" parent="lTcktWHO_dT4Yb3yd9Bz-1">
          <mxGeometry y="60" width="140" height="30" as="geometry" />
        </mxCell>
        <mxCell id="lTcktWHO_dT4Yb3yd9Bz-4" value="Пароль" style="text;strokeColor=none;fillColor=none;align=left;verticalAlign=middle;spacingLeft=4;spacingRight=4;overflow=hidden;points=[[0,0.5],[1,0.5]];portConstraint=eastwest;rotatable=0;whiteSpace=wrap;html=1;fontFamily=Helvetica;fontSize=12;fontColor=default;labelBackgroundColor=default;" vertex="1" parent="lTcktWHO_dT4Yb3yd9Bz-1">
          <mxGeometry y="90" width="140" height="30" as="geometry" />
        </mxCell>
        <mxCell id="Kthzrahqa1AqBSk6zAJS-1" value="Работники_магазинов" style="swimlane;fontStyle=0;childLayout=stackLayout;horizontal=1;startSize=30;horizontalStack=0;resizeParent=1;resizeParentMax=0;resizeLast=0;collapsible=1;marginBottom=0;whiteSpace=wrap;html=1;strokeColor=default;align=center;verticalAlign=middle;fontFamily=Helvetica;fontSize=12;fontColor=default;labelBackgroundColor=default;fillColor=default;" vertex="1" parent="1">
          <mxGeometry x="560" y="160" width="140" height="120" as="geometry" />
        </mxCell>
        <mxCell id="sufdZVAJLFECYwo_GzTB-3" value="ID" style="text;strokeColor=none;fillColor=none;align=left;verticalAlign=middle;spacingLeft=4;spacingRight=4;overflow=hidden;points=[[0,0.5],[1,0.5]];portConstraint=eastwest;rotatable=0;whiteSpace=wrap;html=1;fontFamily=Helvetica;fontSize=12;fontColor=default;labelBackgroundColor=default;" vertex="1" parent="Kthzrahqa1AqBSk6zAJS-1">
          <mxGeometry y="30" width="140" height="30" as="geometry" />
        </mxCell>
        <mxCell id="Kthzrahqa1AqBSk6zAJS-3" value="Имя" style="text;strokeColor=none;fillColor=none;align=left;verticalAlign=middle;spacingLeft=4;spacingRight=4;overflow=hidden;points=[[0,0.5],[1,0.5]];portConstraint=eastwest;rotatable=0;whiteSpace=wrap;html=1;fontFamily=Helvetica;fontSize=12;fontColor=default;labelBackgroundColor=default;" vertex="1" parent="Kthzrahqa1AqBSk6zAJS-1">
          <mxGeometry y="60" width="140" height="30" as="geometry" />
        </mxCell>
        <mxCell id="Kthzrahqa1AqBSk6zAJS-4" value="Пароль" style="text;strokeColor=none;fillColor=none;align=left;verticalAlign=middle;spacingLeft=4;spacingRight=4;overflow=hidden;points=[[0,0.5],[1,0.5]];portConstraint=eastwest;rotatable=0;whiteSpace=wrap;html=1;fontFamily=Helvetica;fontSize=12;fontColor=default;labelBackgroundColor=default;" vertex="1" parent="Kthzrahqa1AqBSk6zAJS-1">
          <mxGeometry y="90" width="140" height="30" as="geometry" />
        </mxCell>
        <mxCell id="RitcR7L2ZVPNusmERuog-1" value="Роли" style="swimlane;fontStyle=0;childLayout=stackLayout;horizontal=1;startSize=30;horizontalStack=0;resizeParent=1;resizeParentMax=0;resizeLast=0;collapsible=1;marginBottom=0;whiteSpace=wrap;html=1;strokeColor=default;align=center;verticalAlign=middle;fontFamily=Helvetica;fontSize=12;fontColor=default;labelBackgroundColor=default;fillColor=default;" vertex="1" parent="1">
          <mxGeometry x="320" y="160" width="160" height="100" as="geometry" />
        </mxCell>
        <mxCell id="sufdZVAJLFECYwo_GzTB-2" value="ID_пользователя" style="text;strokeColor=none;fillColor=none;align=left;verticalAlign=middle;spacingLeft=4;spacingRight=4;overflow=hidden;points=[[0,0.5],[1,0.5]];portConstraint=eastwest;rotatable=0;whiteSpace=wrap;html=1;fontFamily=Helvetica;fontSize=12;fontColor=default;labelBackgroundColor=default;" vertex="1" parent="RitcR7L2ZVPNusmERuog-1">
          <mxGeometry y="30" width="160" height="40" as="geometry" />
        </mxCell>
        <mxCell id="RitcR7L2ZVPNusmERuog-3" value="Роль" style="text;strokeColor=none;fillColor=none;align=left;verticalAlign=middle;spacingLeft=4;spacingRight=4;overflow=hidden;points=[[0,0.5],[1,0.5]];portConstraint=eastwest;rotatable=0;whiteSpace=wrap;html=1;fontFamily=Helvetica;fontSize=12;fontColor=default;labelBackgroundColor=default;" vertex="1" parent="RitcR7L2ZVPNusmERuog-1">
          <mxGeometry y="70" width="160" height="30" as="geometry" />
        </mxCell>
        <mxCell id="VQnfbDH6GpVrQl7Aommq-1" value="Клиент" style="swimlane;fontStyle=0;childLayout=stackLayout;horizontal=1;startSize=30;horizontalStack=0;resizeParent=1;resizeParentMax=0;resizeLast=0;collapsible=1;marginBottom=0;whiteSpace=wrap;html=1;strokeColor=default;align=center;verticalAlign=middle;fontFamily=Helvetica;fontSize=12;fontColor=default;labelBackgroundColor=default;fillColor=default;" vertex="1" parent="1">
          <mxGeometry x="80" y="360" width="140" height="190" as="geometry" />
        </mxCell>
        <mxCell id="jHgS4WVvh5Y7cHCpVcpw-1" value="ID" style="text;strokeColor=none;fillColor=none;align=left;verticalAlign=middle;spacingLeft=4;spacingRight=4;overflow=hidden;points=[[0,0.5],[1,0.5]];portConstraint=eastwest;rotatable=0;whiteSpace=wrap;html=1;fontFamily=Helvetica;fontSize=12;fontColor=default;labelBackgroundColor=default;" vertex="1" parent="VQnfbDH6GpVrQl7Aommq-1">
          <mxGeometry y="30" width="140" height="30" as="geometry" />
        </mxCell>
        <mxCell id="VQnfbDH6GpVrQl7Aommq-2" value="Имя" style="text;strokeColor=none;fillColor=none;align=left;verticalAlign=middle;spacingLeft=4;spacingRight=4;overflow=hidden;points=[[0,0.5],[1,0.5]];portConstraint=eastwest;rotatable=0;whiteSpace=wrap;html=1;fontFamily=Helvetica;fontSize=12;fontColor=default;labelBackgroundColor=default;" vertex="1" parent="VQnfbDH6GpVrQl7Aommq-1">
          <mxGeometry y="60" width="140" height="30" as="geometry" />
        </mxCell>
        <mxCell id="VQnfbDH6GpVrQl7Aommq-3" value="Пароль" style="text;strokeColor=none;fillColor=none;align=left;verticalAlign=middle;spacingLeft=4;spacingRight=4;overflow=hidden;points=[[0,0.5],[1,0.5]];portConstraint=eastwest;rotatable=0;whiteSpace=wrap;html=1;fontFamily=Helvetica;fontSize=12;fontColor=default;labelBackgroundColor=default;" vertex="1" parent="VQnfbDH6GpVrQl7Aommq-1">
          <mxGeometry y="90" width="140" height="30" as="geometry" />
        </mxCell>
        <mxCell id="fQxszEsU8e0uZU3TH3D_-1" value="Серия_и_номер_&lt;div&gt;паспорта&lt;/div&gt;" style="text;strokeColor=none;fillColor=none;align=left;verticalAlign=middle;spacingLeft=4;spacingRight=4;overflow=hidden;points=[[0,0.5],[1,0.5]];portConstraint=eastwest;rotatable=0;whiteSpace=wrap;html=1;fontFamily=Helvetica;fontSize=12;fontColor=default;labelBackgroundColor=default;" vertex="1" parent="VQnfbDH6GpVrQl7Aommq-1">
          <mxGeometry y="120" width="140" height="40" as="geometry" />
        </mxCell>
        <mxCell id="fQxszEsU8e0uZU3TH3D_-2" value="Адрес" style="text;strokeColor=none;fillColor=none;align=left;verticalAlign=middle;spacingLeft=4;spacingRight=4;overflow=hidden;points=[[0,0.5],[1,0.5]];portConstraint=eastwest;rotatable=0;whiteSpace=wrap;html=1;fontFamily=Helvetica;fontSize=12;fontColor=default;labelBackgroundColor=default;" vertex="1" parent="VQnfbDH6GpVrQl7Aommq-1">
          <mxGeometry y="160" width="140" height="30" as="geometry" />
        </mxCell>
        <mxCell id="ndcATeK6JVRAS9wD2t8P-1" value="Работники_магазина" style="swimlane;fontStyle=0;childLayout=stackLayout;horizontal=1;startSize=30;horizontalStack=0;resizeParent=1;resizeParentMax=0;resizeLast=0;collapsible=1;marginBottom=0;whiteSpace=wrap;html=1;strokeColor=default;align=center;verticalAlign=middle;fontFamily=Helvetica;fontSize=12;fontColor=default;labelBackgroundColor=default;fillColor=default;" vertex="1" parent="1">
          <mxGeometry x="560" y="310" width="140" height="100" as="geometry" />
        </mxCell>
        <mxCell id="ndcATeK6JVRAS9wD2t8P-2" value="ID" style="text;strokeColor=none;fillColor=none;align=left;verticalAlign=middle;spacingLeft=4;spacingRight=4;overflow=hidden;points=[[0,0.5],[1,0.5]];portConstraint=eastwest;rotatable=0;whiteSpace=wrap;html=1;fontFamily=Helvetica;fontSize=12;fontColor=default;labelBackgroundColor=default;" vertex="1" parent="ndcATeK6JVRAS9wD2t8P-1">
          <mxGeometry y="30" width="140" height="30" as="geometry" />
        </mxCell>
        <mxCell id="ndcATeK6JVRAS9wD2t8P-4" value="Уникальное имя магазина" style="text;strokeColor=none;fillColor=none;align=left;verticalAlign=middle;spacingLeft=4;spacingRight=4;overflow=hidden;points=[[0,0.5],[1,0.5]];portConstraint=eastwest;rotatable=0;whiteSpace=wrap;html=1;fontFamily=Helvetica;fontSize=12;fontColor=default;labelBackgroundColor=default;" vertex="1" parent="ndcATeK6JVRAS9wD2t8P-1">
          <mxGeometry y="60" width="140" height="40" as="geometry" />
        </mxCell>
        <mxCell id="B6yZaYaUpKpjVQTMLrrg-1" value="Магазины" style="swimlane;fontStyle=0;childLayout=stackLayout;horizontal=1;startSize=30;horizontalStack=0;resizeParent=1;resizeParentMax=0;resizeLast=0;collapsible=1;marginBottom=0;whiteSpace=wrap;html=1;strokeColor=default;align=center;verticalAlign=middle;fontFamily=Helvetica;fontSize=12;fontColor=default;labelBackgroundColor=default;fillColor=default;" vertex="1" parent="1">
          <mxGeometry x="560" y="440" width="140" height="100" as="geometry" />
        </mxCell>
        <mxCell id="B6yZaYaUpKpjVQTMLrrg-3" value="Уникальное имя" style="text;strokeColor=none;fillColor=none;align=left;verticalAlign=middle;spacingLeft=4;spacingRight=4;overflow=hidden;points=[[0,0.5],[1,0.5]];portConstraint=eastwest;rotatable=0;whiteSpace=wrap;html=1;fontFamily=Helvetica;fontSize=12;fontColor=default;labelBackgroundColor=default;" vertex="1" parent="B6yZaYaUpKpjVQTMLrrg-1">
          <mxGeometry y="30" width="140" height="40" as="geometry" />
        </mxCell>
        <mxCell id="B6yZaYaUpKpjVQTMLrrg-2" value="Адрес" style="text;strokeColor=none;fillColor=none;align=left;verticalAlign=middle;spacingLeft=4;spacingRight=4;overflow=hidden;points=[[0,0.5],[1,0.5]];portConstraint=eastwest;rotatable=0;whiteSpace=wrap;html=1;fontFamily=Helvetica;fontSize=12;fontColor=default;labelBackgroundColor=default;" vertex="1" parent="B6yZaYaUpKpjVQTMLrrg-1">
          <mxGeometry y="70" width="140" height="30" as="geometry" />
        </mxCell>
        <mxCell id="R5HfKtB15R2k1QiRvQZc-1" value="Велосипеды" style="swimlane;fontStyle=0;childLayout=stackLayout;horizontal=1;startSize=30;horizontalStack=0;resizeParent=1;resizeParentMax=0;resizeLast=0;collapsible=1;marginBottom=0;whiteSpace=wrap;html=1;strokeColor=default;align=center;verticalAlign=middle;fontFamily=Helvetica;fontSize=12;fontColor=default;labelBackgroundColor=default;fillColor=default;" vertex="1" parent="1">
          <mxGeometry x="555" y="700" width="150" height="140" as="geometry" />
        </mxCell>
        <mxCell id="R5HfKtB15R2k1QiRvQZc-2" value="ID" style="text;strokeColor=none;fillColor=none;align=left;verticalAlign=middle;spacingLeft=4;spacingRight=4;overflow=hidden;points=[[0,0.5],[1,0.5]];portConstraint=eastwest;rotatable=0;whiteSpace=wrap;html=1;fontFamily=Helvetica;fontSize=12;fontColor=default;labelBackgroundColor=default;" vertex="1" parent="R5HfKtB15R2k1QiRvQZc-1">
          <mxGeometry y="30" width="150" height="30" as="geometry" />
        </mxCell>
        <mxCell id="R5HfKtB15R2k1QiRvQZc-3" value="Уникальное_название_&lt;div&gt;модели_велосипеда&lt;/div&gt;" style="text;strokeColor=none;fillColor=none;align=left;verticalAlign=middle;spacingLeft=4;spacingRight=4;overflow=hidden;points=[[0,0.5],[1,0.5]];portConstraint=eastwest;rotatable=0;whiteSpace=wrap;html=1;fontFamily=Helvetica;fontSize=12;fontColor=default;labelBackgroundColor=default;" vertex="1" parent="R5HfKtB15R2k1QiRvQZc-1">
          <mxGeometry y="60" width="150" height="40" as="geometry" />
        </mxCell>
        <mxCell id="3K4XUYu_NDohOV-OV8Qz-2" value="Уникальное_имя_&lt;div&gt;магазина&lt;/div&gt;" style="text;strokeColor=none;fillColor=none;align=left;verticalAlign=middle;spacingLeft=4;spacingRight=4;overflow=hidden;points=[[0,0.5],[1,0.5]];portConstraint=eastwest;rotatable=0;whiteSpace=wrap;html=1;fontFamily=Helvetica;fontSize=12;fontColor=default;labelBackgroundColor=default;" vertex="1" parent="R5HfKtB15R2k1QiRvQZc-1">
          <mxGeometry y="100" width="150" height="40" as="geometry" />
        </mxCell>
        <mxCell id="2RmEbbsvUScx7L8XwXNr-1" value="Модели_велосипедов" style="swimlane;fontStyle=0;childLayout=stackLayout;horizontal=1;startSize=30;horizontalStack=0;resizeParent=1;resizeParentMax=0;resizeLast=0;collapsible=1;marginBottom=0;whiteSpace=wrap;html=1;strokeColor=default;align=center;verticalAlign=middle;fontFamily=Helvetica;fontSize=12;fontColor=default;labelBackgroundColor=default;fillColor=default;" vertex="1" parent="1">
          <mxGeometry x="260" y="600" width="140" height="150" as="geometry" />
        </mxCell>
        <mxCell id="2RmEbbsvUScx7L8XwXNr-2" value="Уникальное_название" style="text;strokeColor=none;fillColor=none;align=left;verticalAlign=middle;spacingLeft=4;spacingRight=4;overflow=hidden;points=[[0,0.5],[1,0.5]];portConstraint=eastwest;rotatable=0;whiteSpace=wrap;html=1;fontFamily=Helvetica;fontSize=12;fontColor=default;labelBackgroundColor=default;" vertex="1" parent="2RmEbbsvUScx7L8XwXNr-1">
          <mxGeometry y="30" width="140" height="40" as="geometry" />
        </mxCell>
        <mxCell id="2RmEbbsvUScx7L8XwXNr-3" value="Тип" style="text;strokeColor=none;fillColor=none;align=left;verticalAlign=middle;spacingLeft=4;spacingRight=4;overflow=hidden;points=[[0,0.5],[1,0.5]];portConstraint=eastwest;rotatable=0;whiteSpace=wrap;html=1;fontFamily=Helvetica;fontSize=12;fontColor=default;labelBackgroundColor=default;" vertex="1" parent="2RmEbbsvUScx7L8XwXNr-1">
          <mxGeometry y="70" width="140" height="40" as="geometry" />
        </mxCell>
        <mxCell id="2RmEbbsvUScx7L8XwXNr-4" value="Количество_передач" style="text;strokeColor=none;fillColor=none;align=left;verticalAlign=middle;spacingLeft=4;spacingRight=4;overflow=hidden;points=[[0,0.5],[1,0.5]];portConstraint=eastwest;rotatable=0;whiteSpace=wrap;html=1;fontFamily=Helvetica;fontSize=12;fontColor=default;labelBackgroundColor=default;" vertex="1" parent="2RmEbbsvUScx7L8XwXNr-1">
          <mxGeometry y="110" width="140" height="40" as="geometry" />
        </mxCell>
        <mxCell id="wecg3StRDC87RMc8zK30-1" value="Бронирование" style="swimlane;fontStyle=0;childLayout=stackLayout;horizontal=1;startSize=30;horizontalStack=0;resizeParent=1;resizeParentMax=0;resizeLast=0;collapsible=1;marginBottom=0;whiteSpace=wrap;html=1;strokeColor=default;align=center;verticalAlign=middle;fontFamily=Helvetica;fontSize=12;fontColor=default;labelBackgroundColor=default;fillColor=default;" vertex="1" parent="1">
          <mxGeometry x="340" y="320" width="150" height="250" as="geometry" />
        </mxCell>
        <mxCell id="wecg3StRDC87RMc8zK30-2" value="ID_клиента" style="text;strokeColor=none;fillColor=none;align=left;verticalAlign=middle;spacingLeft=4;spacingRight=4;overflow=hidden;points=[[0,0.5],[1,0.5]];portConstraint=eastwest;rotatable=0;whiteSpace=wrap;html=1;fontFamily=Helvetica;fontSize=12;fontColor=default;labelBackgroundColor=default;" vertex="1" parent="wecg3StRDC87RMc8zK30-1">
          <mxGeometry y="30" width="150" height="30" as="geometry" />
        </mxCell>
        <mxCell id="wecg3StRDC87RMc8zK30-3" value="Уникальное_название_&lt;div&gt;модели_велосипеда&lt;/div&gt;" style="text;strokeColor=none;fillColor=none;align=left;verticalAlign=middle;spacingLeft=4;spacingRight=4;overflow=hidden;points=[[0,0.5],[1,0.5]];portConstraint=eastwest;rotatable=0;whiteSpace=wrap;html=1;fontFamily=Helvetica;fontSize=12;fontColor=default;labelBackgroundColor=default;" vertex="1" parent="wecg3StRDC87RMc8zK30-1">
          <mxGeometry y="60" width="150" height="40" as="geometry" />
        </mxCell>
        <mxCell id="wecg3StRDC87RMc8zK30-4" value="Уникальное_имя_&lt;div&gt;магазина&lt;/div&gt;" style="text;strokeColor=none;fillColor=none;align=left;verticalAlign=middle;spacingLeft=4;spacingRight=4;overflow=hidden;points=[[0,0.5],[1,0.5]];portConstraint=eastwest;rotatable=0;whiteSpace=wrap;html=1;fontFamily=Helvetica;fontSize=12;fontColor=default;labelBackgroundColor=default;" vertex="1" parent="wecg3StRDC87RMc8zK30-1">
          <mxGeometry y="100" width="150" height="40" as="geometry" />
        </mxCell>
        <mxCell id="81U3gCbocoQbyDADl0S--1" value="Дата начала аренды" style="text;strokeColor=none;fillColor=none;align=left;verticalAlign=middle;spacingLeft=4;spacingRight=4;overflow=hidden;points=[[0,0.5],[1,0.5]];portConstraint=eastwest;rotatable=0;whiteSpace=wrap;html=1;fontFamily=Helvetica;fontSize=12;fontColor=default;labelBackgroundColor=default;" vertex="1" parent="wecg3StRDC87RMc8zK30-1">
          <mxGeometry y="140" width="150" height="40" as="geometry" />
        </mxCell>
        <mxCell id="_cNgUfSLB7yUoUJtWbLT-1" value="Дата конца аренды" style="text;strokeColor=none;fillColor=none;align=left;verticalAlign=middle;spacingLeft=4;spacingRight=4;overflow=hidden;points=[[0,0.5],[1,0.5]];portConstraint=eastwest;rotatable=0;whiteSpace=wrap;html=1;fontFamily=Helvetica;fontSize=12;fontColor=default;labelBackgroundColor=default;" vertex="1" parent="wecg3StRDC87RMc8zK30-1">
          <mxGeometry y="180" width="150" height="40" as="geometry" />
        </mxCell>
        <mxCell id="8b3FGMtp21sNaPJ6e8wp-1" value="ID" style="text;strokeColor=none;fillColor=none;align=left;verticalAlign=middle;spacingLeft=4;spacingRight=4;overflow=hidden;points=[[0,0.5],[1,0.5]];portConstraint=eastwest;rotatable=0;whiteSpace=wrap;html=1;fontFamily=Helvetica;fontSize=12;fontColor=default;labelBackgroundColor=default;" vertex="1" parent="wecg3StRDC87RMc8zK30-1">
          <mxGeometry y="220" width="150" height="30" as="geometry" />
        </mxCell>
        <mxCell id="_cNgUfSLB7yUoUJtWbLT-2" value="Учет_аренды" style="swimlane;fontStyle=0;childLayout=stackLayout;horizontal=1;startSize=30;horizontalStack=0;resizeParent=1;resizeParentMax=0;resizeLast=0;collapsible=1;marginBottom=0;whiteSpace=wrap;html=1;strokeColor=default;align=center;verticalAlign=middle;fontFamily=Helvetica;fontSize=12;fontColor=default;labelBackgroundColor=default;fillColor=default;" vertex="1" parent="1">
          <mxGeometry x="555" y="560" width="150" height="110" as="geometry" />
        </mxCell>
        <mxCell id="_cNgUfSLB7yUoUJtWbLT-4" value="ID_бронирования" style="text;strokeColor=none;fillColor=none;align=left;verticalAlign=middle;spacingLeft=4;spacingRight=4;overflow=hidden;points=[[0,0.5],[1,0.5]];portConstraint=eastwest;rotatable=0;whiteSpace=wrap;html=1;fontFamily=Helvetica;fontSize=12;fontColor=default;labelBackgroundColor=default;" vertex="1" parent="_cNgUfSLB7yUoUJtWbLT-2">
          <mxGeometry y="30" width="150" height="40" as="geometry" />
        </mxCell>
        <mxCell id="_cNgUfSLB7yUoUJtWbLT-5" value="ID_велосипеда" style="text;strokeColor=none;fillColor=none;align=left;verticalAlign=middle;spacingLeft=4;spacingRight=4;overflow=hidden;points=[[0,0.5],[1,0.5]];portConstraint=eastwest;rotatable=0;whiteSpace=wrap;html=1;fontFamily=Helvetica;fontSize=12;fontColor=default;labelBackgroundColor=default;" vertex="1" parent="_cNgUfSLB7yUoUJtWbLT-2">
          <mxGeometry y="70" width="150" height="40" as="geometry" />
        </mxCell>
        <mxCell id="8b3FGMtp21sNaPJ6e8wp-2" style="edgeStyle=none;shape=connector;rounded=0;orthogonalLoop=1;jettySize=auto;html=1;exitX=1;exitY=0.5;exitDx=0;exitDy=0;strokeColor=default;align=center;verticalAlign=middle;fontFamily=Helvetica;fontSize=12;fontColor=default;labelBackgroundColor=default;startFill=0;endArrow=none;endFill=0;entryX=-0.002;entryY=0.371;entryDx=0;entryDy=0;entryPerimeter=0;" edge="1" parent="1" source="sufdZVAJLFECYwo_GzTB-1" target="sufdZVAJLFECYwo_GzTB-2">
          <mxGeometry relative="1" as="geometry">
            <mxPoint x="310" y="204" as="targetPoint" />
          </mxGeometry>
        </mxCell>
        <mxCell id="8b3FGMtp21sNaPJ6e8wp-3" style="edgeStyle=orthogonalEdgeStyle;shape=connector;rounded=0;orthogonalLoop=1;jettySize=auto;html=1;exitX=0.993;exitY=0.185;exitDx=0;exitDy=0;entryX=0;entryY=0.781;entryDx=0;entryDy=0;strokeColor=default;align=center;verticalAlign=middle;fontFamily=Helvetica;fontSize=12;fontColor=default;labelBackgroundColor=default;startFill=0;endArrow=none;endFill=0;entryPerimeter=0;exitPerimeter=0;" edge="1" parent="1" source="jHgS4WVvh5Y7cHCpVcpw-1" target="sufdZVAJLFECYwo_GzTB-2">
          <mxGeometry relative="1" as="geometry" />
        </mxCell>
        <mxCell id="8b3FGMtp21sNaPJ6e8wp-4" style="edgeStyle=none;shape=connector;rounded=0;orthogonalLoop=1;jettySize=auto;html=1;exitX=0;exitY=0.5;exitDx=0;exitDy=0;entryX=0.994;entryY=0.354;entryDx=0;entryDy=0;entryPerimeter=0;strokeColor=default;align=center;verticalAlign=middle;fontFamily=Helvetica;fontSize=12;fontColor=default;labelBackgroundColor=default;startFill=0;endArrow=none;endFill=0;" edge="1" parent="1" source="sufdZVAJLFECYwo_GzTB-3" target="sufdZVAJLFECYwo_GzTB-2">
          <mxGeometry relative="1" as="geometry" />
        </mxCell>
        <mxCell id="iAJB8osYz1C5d_V5UPMD-1" value="1" style="text;html=1;align=center;verticalAlign=middle;resizable=0;points=[];autosize=1;strokeColor=none;fillColor=none;fontFamily=Helvetica;fontSize=12;fontColor=default;" vertex="1" parent="1">
          <mxGeometry x="290" y="220" width="30" height="30" as="geometry" />
        </mxCell>
        <mxCell id="gnBi-pKntkIU9ZTKO3rY-1" value="М" style="text;html=1;align=center;verticalAlign=middle;resizable=0;points=[];autosize=1;strokeColor=none;fillColor=none;fontFamily=Helvetica;fontSize=12;fontColor=default;" vertex="1" parent="1">
          <mxGeometry x="220" y="369" width="30" height="30" as="geometry" />
        </mxCell>
        <mxCell id="br2d2-4NcZtfJHAlI8b3-1" value="М" style="text;html=1;align=center;verticalAlign=middle;resizable=0;points=[];autosize=1;strokeColor=none;fillColor=none;fontFamily=Helvetica;fontSize=12;fontColor=default;" vertex="1" parent="1">
          <mxGeometry x="220" y="175" width="30" height="30" as="geometry" />
        </mxCell>
        <mxCell id="br2d2-4NcZtfJHAlI8b3-2" value="1" style="text;html=1;align=center;verticalAlign=middle;resizable=0;points=[];autosize=1;strokeColor=none;fillColor=none;fontFamily=Helvetica;fontSize=12;fontColor=default;" vertex="1" parent="1">
          <mxGeometry x="290" y="180" width="30" height="30" as="geometry" />
        </mxCell>
        <mxCell id="br2d2-4NcZtfJHAlI8b3-3" value="1" style="text;html=1;align=center;verticalAlign=middle;resizable=0;points=[];autosize=1;strokeColor=none;fillColor=none;fontFamily=Helvetica;fontSize=12;fontColor=default;" vertex="1" parent="1">
          <mxGeometry x="480" y="205" width="30" height="30" as="geometry" />
        </mxCell>
        <mxCell id="br2d2-4NcZtfJHAlI8b3-4" value="М" style="text;html=1;align=center;verticalAlign=middle;resizable=0;points=[];autosize=1;strokeColor=none;fillColor=none;fontFamily=Helvetica;fontSize=12;fontColor=default;" vertex="1" parent="1">
          <mxGeometry x="530" y="205" width="30" height="30" as="geometry" />
        </mxCell>
        <mxCell id="noi1OCtmy8930O9a9DQW-1" style="edgeStyle=orthogonalEdgeStyle;shape=connector;rounded=0;orthogonalLoop=1;jettySize=auto;html=1;exitX=0.998;exitY=0.821;exitDx=0;exitDy=0;entryX=0;entryY=0.5;entryDx=0;entryDy=0;strokeColor=default;align=center;verticalAlign=middle;fontFamily=Helvetica;fontSize=12;fontColor=default;labelBackgroundColor=default;startFill=0;endArrow=none;endFill=0;exitPerimeter=0;" edge="1" parent="1" source="jHgS4WVvh5Y7cHCpVcpw-1" target="wecg3StRDC87RMc8zK30-2">
          <mxGeometry relative="1" as="geometry">
            <Array as="points">
              <mxPoint x="290" y="415" />
              <mxPoint x="290" y="365" />
            </Array>
          </mxGeometry>
        </mxCell>
        <mxCell id="5gMrMqh_1BnbLSrGdFEi-1" value="1" style="text;html=1;align=center;verticalAlign=middle;resizable=0;points=[];autosize=1;strokeColor=none;fillColor=none;fontFamily=Helvetica;fontSize=12;fontColor=default;" vertex="1" parent="1">
          <mxGeometry x="310" y="339" width="30" height="30" as="geometry" />
        </mxCell>
        <mxCell id="5gMrMqh_1BnbLSrGdFEi-2" value="1" style="text;html=1;align=center;verticalAlign=middle;resizable=0;points=[];autosize=1;strokeColor=none;fillColor=none;fontFamily=Helvetica;fontSize=12;fontColor=default;" vertex="1" parent="1">
          <mxGeometry x="220" y="410" width="30" height="30" as="geometry" />
        </mxCell>
        <mxCell id="5gMrMqh_1BnbLSrGdFEi-3" style="edgeStyle=orthogonalEdgeStyle;shape=connector;rounded=0;orthogonalLoop=1;jettySize=auto;html=1;exitX=0;exitY=0.5;exitDx=0;exitDy=0;entryX=0;entryY=0.5;entryDx=0;entryDy=0;strokeColor=default;align=center;verticalAlign=middle;fontFamily=Helvetica;fontSize=12;fontColor=default;labelBackgroundColor=default;startFill=0;endArrow=none;endFill=0;" edge="1" parent="1" source="2RmEbbsvUScx7L8XwXNr-2" target="wecg3StRDC87RMc8zK30-3">
          <mxGeometry relative="1" as="geometry">
            <Array as="points">
              <mxPoint x="240" y="650" />
              <mxPoint x="240" y="520" />
              <mxPoint x="310" y="520" />
              <mxPoint x="310" y="400" />
            </Array>
          </mxGeometry>
        </mxCell>
        <mxCell id="5gMrMqh_1BnbLSrGdFEi-4" value="М" style="text;html=1;align=center;verticalAlign=middle;resizable=0;points=[];autosize=1;strokeColor=none;fillColor=none;fontFamily=Helvetica;fontSize=12;fontColor=default;" vertex="1" parent="1">
          <mxGeometry x="310" y="399" width="30" height="30" as="geometry" />
        </mxCell>
        <mxCell id="QPe2LV4SKsK38B1Y3Bpk-1" value="1" style="text;html=1;align=center;verticalAlign=middle;resizable=0;points=[];autosize=1;strokeColor=none;fillColor=none;fontFamily=Helvetica;fontSize=12;fontColor=default;" vertex="1" parent="1">
          <mxGeometry x="230" y="650" width="30" height="30" as="geometry" />
        </mxCell>
        <mxCell id="UkLn5KdkgPXzAoWR_3mG-1" style="edgeStyle=orthogonalEdgeStyle;shape=connector;rounded=0;orthogonalLoop=1;jettySize=auto;html=1;exitX=0;exitY=0.5;exitDx=0;exitDy=0;entryX=1;entryY=0.5;entryDx=0;entryDy=0;strokeColor=default;align=center;verticalAlign=middle;fontFamily=Helvetica;fontSize=12;fontColor=default;labelBackgroundColor=default;startFill=0;endArrow=none;endFill=0;" edge="1" parent="1" source="B6yZaYaUpKpjVQTMLrrg-3" target="wecg3StRDC87RMc8zK30-4">
          <mxGeometry relative="1" as="geometry" />
        </mxCell>
        <mxCell id="ByTLYnWf7JxBpHpBIxbK-1" value="М" style="text;html=1;align=center;verticalAlign=middle;resizable=0;points=[];autosize=1;strokeColor=none;fillColor=none;fontFamily=Helvetica;fontSize=12;fontColor=default;" vertex="1" parent="1">
          <mxGeometry x="490" y="440" width="30" height="30" as="geometry" />
        </mxCell>
        <mxCell id="ByTLYnWf7JxBpHpBIxbK-3" value="1" style="text;html=1;align=center;verticalAlign=middle;resizable=0;points=[];autosize=1;strokeColor=none;fillColor=none;fontFamily=Helvetica;fontSize=12;fontColor=default;" vertex="1" parent="1">
          <mxGeometry x="530" y="490" width="30" height="30" as="geometry" />
        </mxCell>
        <mxCell id="ByTLYnWf7JxBpHpBIxbK-4" style="edgeStyle=orthogonalEdgeStyle;shape=connector;rounded=0;orthogonalLoop=1;jettySize=auto;html=1;exitX=1;exitY=0.5;exitDx=0;exitDy=0;entryX=1;entryY=0.5;entryDx=0;entryDy=0;strokeColor=default;align=center;verticalAlign=middle;fontFamily=Helvetica;fontSize=12;fontColor=default;labelBackgroundColor=default;startFill=0;endArrow=none;endFill=0;" edge="1" parent="1" source="Kthzrahqa1AqBSk6zAJS-3" target="ndcATeK6JVRAS9wD2t8P-1">
          <mxGeometry relative="1" as="geometry">
            <Array as="points">
              <mxPoint x="740" y="235" />
              <mxPoint x="740" y="360" />
            </Array>
          </mxGeometry>
        </mxCell>
        <mxCell id="ByTLYnWf7JxBpHpBIxbK-5" value="М" style="text;html=1;align=center;verticalAlign=middle;resizable=0;points=[];autosize=1;strokeColor=none;fillColor=none;fontFamily=Helvetica;fontSize=12;fontColor=default;" vertex="1" parent="1">
          <mxGeometry x="700" y="235" width="30" height="30" as="geometry" />
        </mxCell>
        <mxCell id="1j6WPByb5z6GsLjNU5Os-1" value="1" style="text;html=1;align=center;verticalAlign=middle;resizable=0;points=[];autosize=1;strokeColor=none;fillColor=none;fontFamily=Helvetica;fontSize=12;fontColor=default;" vertex="1" parent="1">
          <mxGeometry x="700" y="330" width="30" height="30" as="geometry" />
        </mxCell>
        <mxCell id="1j6WPByb5z6GsLjNU5Os-2" style="edgeStyle=orthogonalEdgeStyle;shape=connector;rounded=0;orthogonalLoop=1;jettySize=auto;html=1;exitX=1;exitY=0.5;exitDx=0;exitDy=0;entryX=0.991;entryY=0.269;entryDx=0;entryDy=0;strokeColor=default;align=center;verticalAlign=middle;fontFamily=Helvetica;fontSize=12;fontColor=default;labelBackgroundColor=default;startFill=0;endArrow=none;endFill=0;entryPerimeter=0;" edge="1" parent="1" source="ndcATeK6JVRAS9wD2t8P-4" target="B6yZaYaUpKpjVQTMLrrg-3">
          <mxGeometry relative="1" as="geometry">
            <Array as="points">
              <mxPoint x="740" y="390" />
              <mxPoint x="740" y="481" />
            </Array>
          </mxGeometry>
        </mxCell>
        <mxCell id="1j6WPByb5z6GsLjNU5Os-3" value="1" style="text;html=1;align=center;verticalAlign=middle;resizable=0;points=[];autosize=1;strokeColor=none;fillColor=none;fontFamily=Helvetica;fontSize=12;fontColor=default;" vertex="1" parent="1">
          <mxGeometry x="700" y="450" width="30" height="30" as="geometry" />
        </mxCell>
        <mxCell id="lieutS8_AJyeJ0132ZM7-1" value="М" style="text;html=1;align=center;verticalAlign=middle;resizable=0;points=[];autosize=1;strokeColor=none;fillColor=none;fontFamily=Helvetica;fontSize=12;fontColor=default;" vertex="1" parent="1">
          <mxGeometry x="700" y="390" width="30" height="30" as="geometry" />
        </mxCell>
        <mxCell id="q-Wiio59hl_iNyWQIfzP-2" style="edgeStyle=orthogonalEdgeStyle;shape=connector;rounded=0;orthogonalLoop=1;jettySize=auto;html=1;exitX=1;exitY=0.5;exitDx=0;exitDy=0;entryX=0;entryY=0.5;entryDx=0;entryDy=0;strokeColor=default;align=center;verticalAlign=middle;fontFamily=Helvetica;fontSize=12;fontColor=default;labelBackgroundColor=default;startFill=0;endArrow=none;endFill=0;" edge="1" parent="1" source="8b3FGMtp21sNaPJ6e8wp-1" target="_cNgUfSLB7yUoUJtWbLT-2">
          <mxGeometry relative="1" as="geometry" />
        </mxCell>
        <mxCell id="KgPgRelW_MoDhZ_jLE24-1" value="1" style="text;html=1;align=center;verticalAlign=middle;resizable=0;points=[];autosize=1;strokeColor=none;fillColor=none;fontFamily=Helvetica;fontSize=12;fontColor=default;" vertex="1" parent="1">
          <mxGeometry x="490" y="555" width="30" height="30" as="geometry" />
        </mxCell>
        <mxCell id="KgPgRelW_MoDhZ_jLE24-2" value="1" style="text;html=1;align=center;verticalAlign=middle;resizable=0;points=[];autosize=1;strokeColor=none;fillColor=none;fontFamily=Helvetica;fontSize=12;fontColor=default;" vertex="1" parent="1">
          <mxGeometry x="525" y="585" width="30" height="30" as="geometry" />
        </mxCell>
        <mxCell id="KgPgRelW_MoDhZ_jLE24-4" style="edgeStyle=orthogonalEdgeStyle;shape=connector;rounded=0;orthogonalLoop=1;jettySize=auto;html=1;exitX=0;exitY=0.5;exitDx=0;exitDy=0;entryX=0;entryY=0.5;entryDx=0;entryDy=0;strokeColor=default;align=center;verticalAlign=middle;fontFamily=Helvetica;fontSize=12;fontColor=default;labelBackgroundColor=default;startFill=0;endArrow=none;endFill=0;" edge="1" parent="1" source="R5HfKtB15R2k1QiRvQZc-2" target="_cNgUfSLB7yUoUJtWbLT-5">
          <mxGeometry relative="1" as="geometry">
            <Array as="points">
              <mxPoint x="520" y="745" />
              <mxPoint x="520" y="650" />
            </Array>
          </mxGeometry>
        </mxCell>
        <mxCell id="KgPgRelW_MoDhZ_jLE24-5" value="1" style="text;html=1;align=center;verticalAlign=middle;resizable=0;points=[];autosize=1;strokeColor=none;fillColor=none;fontFamily=Helvetica;fontSize=12;fontColor=default;" vertex="1" parent="1">
          <mxGeometry x="525" y="650" width="30" height="30" as="geometry" />
        </mxCell>
        <mxCell id="KgPgRelW_MoDhZ_jLE24-6" value="1" style="text;html=1;align=center;verticalAlign=middle;resizable=0;points=[];autosize=1;strokeColor=none;fillColor=none;fontFamily=Helvetica;fontSize=12;fontColor=default;" vertex="1" parent="1">
          <mxGeometry x="525" y="720" width="30" height="30" as="geometry" />
        </mxCell>
        <mxCell id="KgPgRelW_MoDhZ_jLE24-7" style="edgeStyle=orthogonalEdgeStyle;shape=connector;rounded=0;orthogonalLoop=1;jettySize=auto;html=1;exitX=1;exitY=0.5;exitDx=0;exitDy=0;entryX=1;entryY=0.5;entryDx=0;entryDy=0;strokeColor=default;align=center;verticalAlign=middle;fontFamily=Helvetica;fontSize=12;fontColor=default;labelBackgroundColor=default;startFill=0;endArrow=none;endFill=0;" edge="1" parent="1" source="3K4XUYu_NDohOV-OV8Qz-2" target="B6yZaYaUpKpjVQTMLrrg-3">
          <mxGeometry relative="1" as="geometry">
            <Array as="points">
              <mxPoint x="740" y="820" />
              <mxPoint x="740" y="490" />
            </Array>
          </mxGeometry>
        </mxCell>
        <mxCell id="eVT1ZFVVVybZXYT9anq6-1" value="1" style="text;html=1;align=center;verticalAlign=middle;resizable=0;points=[];autosize=1;strokeColor=none;fillColor=none;fontFamily=Helvetica;fontSize=12;fontColor=default;" vertex="1" parent="1">
          <mxGeometry x="700" y="490" width="30" height="30" as="geometry" />
        </mxCell>
        <mxCell id="eVT1ZFVVVybZXYT9anq6-2" value="М" style="text;html=1;align=center;verticalAlign=middle;resizable=0;points=[];autosize=1;strokeColor=none;fillColor=none;fontFamily=Helvetica;fontSize=12;fontColor=default;" vertex="1" parent="1">
          <mxGeometry x="705" y="790" width="30" height="30" as="geometry" />
        </mxCell>
        <mxCell id="eVT1ZFVVVybZXYT9anq6-3" style="edgeStyle=orthogonalEdgeStyle;shape=connector;rounded=0;orthogonalLoop=1;jettySize=auto;html=1;exitX=1;exitY=0.5;exitDx=0;exitDy=0;entryX=0;entryY=0.5;entryDx=0;entryDy=0;strokeColor=default;align=center;verticalAlign=middle;fontFamily=Helvetica;fontSize=12;fontColor=default;labelBackgroundColor=default;startFill=0;endArrow=none;endFill=0;" edge="1" parent="1" source="2RmEbbsvUScx7L8XwXNr-2" target="R5HfKtB15R2k1QiRvQZc-3">
          <mxGeometry relative="1" as="geometry" />
        </mxCell>
        <mxCell id="_NrnMg4dsoLS83gbFFc4-1" value="1" style="text;html=1;align=center;verticalAlign=middle;resizable=0;points=[];autosize=1;strokeColor=none;fillColor=none;fontFamily=Helvetica;fontSize=12;fontColor=default;" vertex="1" parent="1">
          <mxGeometry x="400" y="650" width="30" height="30" as="geometry" />
        </mxCell>
        <mxCell id="_NrnMg4dsoLS83gbFFc4-2" value="М" style="text;html=1;align=center;verticalAlign=middle;resizable=0;points=[];autosize=1;strokeColor=none;fillColor=none;fontFamily=Helvetica;fontSize=12;fontColor=default;" vertex="1" parent="1">
          <mxGeometry x="525" y="780" width="30" height="30" as="geometry" />
        </mxCell>
      </root>
    </mxGraphModel>
  </diagram>
  <diagram id="PmaKSCsgNBvDyzZMM0YE" name="Страница — 4">
    <mxGraphModel dx="1050" dy="629" grid="1" gridSize="10" guides="1" tooltips="1" connect="1" arrows="1" fold="1" page="1" pageScale="1" pageWidth="827" pageHeight="1169" math="0" shadow="0">
      <root>
        <mxCell id="0" />
        <mxCell id="1" parent="0" />
      </root>
    </mxGraphModel>
  </diagram>
</mxfile>
